<?xml version="1.0" encoding="UTF-8" standalone="no"?>
<!-- Created with Inkscape (http://www.inkscape.org/) -->

<svg
   xmlns:dc="http://purl.org/dc/elements/1.1/"
   xmlns:cc="http://creativecommons.org/ns#"
   xmlns:rdf="http://www.w3.org/1999/02/22-rdf-syntax-ns#"
   xmlns:svg="http://www.w3.org/2000/svg"
   xmlns="http://www.w3.org/2000/svg"
   xmlns:sodipodi="http://sodipodi.sourceforge.net/DTD/sodipodi-0.dtd"
   xmlns:inkscape="http://www.inkscape.org/namespaces/inkscape"
   width="512"
   height="512"
   viewBox="0 0 512 512"
   version="1.1"
   id="svg8"
   inkscape:version="0.92.4 (5da689c313, 2019-01-14)"
   sodipodi:docname="圖畫.svg">
  <defs
     id="defs2" />
  <sodipodi:namedview
     id="base"
     pagecolor="#ffffff"
     bordercolor="#666666"
     borderopacity="1.0"
     inkscape:pageopacity="0.0"
     inkscape:pageshadow="2"
     inkscape:zoom="1"
     inkscape:cx="125.49638"
     inkscape:cy="227.39489"
     inkscape:document-units="px"
     inkscape:current-layer="layer1"
     showgrid="true"
     units="px"
     scale-x="1"
     inkscape:window-width="1920"
     inkscape:window-height="1001"
     inkscape:window-x="-9"
     inkscape:window-y="-9"
     inkscape:window-maximized="1">
    <inkscape:grid
       type="xygrid"
       id="grid815" />
  </sodipodi:namedview>
  <metadata
     id="metadata5">
    <rdf:RDF>
      <cc:Work
         rdf:about="">
        <dc:format>image/svg+xml</dc:format>
        <dc:type
           rdf:resource="http://purl.org/dc/dcmitype/StillImage" />
        <dc:title></dc:title>
      </cc:Work>
    </rdf:RDF>
  </metadata>
  <g
     inkscape:label="圖層 1"
     inkscape:groupmode="layer"
     id="layer1"
     transform="translate(0,-161.53332)">
    <path
       style="fill:#000000;fill-opacity:1;stroke:#000000;stroke-width:1px;stroke-linecap:butt;stroke-linejoin:miter;stroke-opacity:1"
       d="M 130,233.53332 C 130,243.53332 123.85415,260.66537 124.94975,264.94753 127.28666,274.08141 142.50265,275.84256 144.94975,284.94753 146.6138,291.13901 144.71405,298.81927 140,303.53332 L 110,333.53332 C 96.666667,346.86665 83.333333,360.19999 70,373.53332 60,383.53332 51.472697,395.26427 40,403.53332 33.953358,407.89149 27.25417,411.82084 20,413.53332 16.755837,414.29916 12.357023,411.1763 10,413.53332 7.6429774,415.89034 8.7243886,420.45372 10,423.53332 11.803987,427.88853 15.338246,432.83313 20,433.53332 25.049372,434.29173 29.249403,429.13671 33.535534,426.36175 39.375763,422.58061 44.786178,418.13998 50,413.53332 57.065351,407.29075 63.536942,400.39756 70,393.53332 75.428381,387.76798 80.274513,381.46871 85.757359,375.75515 103.13523,357.64601 120.4402,339.26055 140,323.53332 149.3663,316.00226 158.00472,304.28012 170,303.53332 177.43916,303.07017 187.64298,306.46225 190,313.53332 192.35702,320.60439 182.58598,326.54274 180,333.53332 175.23168,346.42332 171.67925,359.89261 170,373.53332 169.59272,376.84168 166.9204,382.25771 170,383.53332 174.35521,385.33731 177.52168,377.54333 180,373.53332 185.54169,364.56667 183.09357,351.4965 190,343.53332 194.88359,337.9025 203.33333,336.86665 210,333.53332 216.66667,330.19999 227.14765,330.41951 230,323.53332 234.03384,313.79477 225.54169,302.49997 220,293.53332 217.52168,289.52331 214.71405,283.53332 210,283.53332 205.28595,283.53332 204.35521,291.72933 200,293.53332 196.9204,294.80893 193.33333,293.53332 190,293.53332 H 180 V 293.53332 C 180,293.53332 167.6196,272.82774 160,263.53332 157.01135,259.88775 153.33333,256.86665 150,253.53332 143.33333,246.86665 130,224.10523 130,233.53332 Z"
       id="path830"
       inkscape:connector-curvature="0"
       sodipodi:nodetypes="ssasaaaaaaaaaaaaaaaaaaaaaaaaaaaaas" />
    <path
       style="fill:#000000;fill-opacity:1;stroke:#000000;stroke-width:1px;stroke-linecap:butt;stroke-linejoin:miter;stroke-opacity:1"
       d="M 90,383.53332 100,423.53332 C 100,423.53332 130,443.53332 120,453.53332 110,463.53332 70,473.53332 70,473.53332 70,473.53332 80,513.53332 90,503.53332 100,493.53332 100,473.53332 100,473.53332 H 120 V 483.53332 C 120,483.53332 130,473.53332 130,463.53332 130,453.53332 160,453.53332 160,453.53332 L 170,443.53332 130,453.53332 C 130,453.53332 110,383.53332 90,383.53332 Z"
       id="path834"
       inkscape:connector-curvature="0" />
    <path
       style="fill:#000000;fill-opacity:1;stroke:#000000;stroke-width:1px;stroke-linecap:butt;stroke-linejoin:miter;stroke-opacity:1"
       d="M 170,393.53332 150,403.53332 140,393.53332 V 383.53332 H 170 L 210,373.53332 220,353.53332 250,363.53332 V 393.53332 L 220,383.53332 Z"
       id="path838"
       inkscape:connector-curvature="0" />
    <path
       style="fill:#000000;fill-opacity:1;stroke:#000000;stroke-width:1px;stroke-linecap:butt;stroke-linejoin:miter;stroke-opacity:1"
       d="M 170,393.53332 V 443.53332 L 140,503.53332 90,553.53332 80,563.53332 H 50 L 60,603.53332 120,553.53332 160,483.53332 180,453.53332 190,393.53332 Z"
       id="path840"
       inkscape:connector-curvature="0" />
    <path
       style="fill:#000000;fill-opacity:1;stroke:#000000;stroke-width:1px;stroke-linecap:butt;stroke-linejoin:miter;stroke-opacity:1"
       d="M 220,383.53332 240,393.53332 230,433.53332 H 210 Z"
       id="path842"
       inkscape:connector-curvature="0" />
    <path
       style="fill:#000000;fill-opacity:1;stroke:#000000;stroke-width:1px;stroke-linecap:butt;stroke-linejoin:miter;stroke-opacity:1"
       d="M 180,443.53332 210,433.53332 H 230 240 V 453.53332 H 180 Z"
       id="path844"
       inkscape:connector-curvature="0" />
    <path
       style="fill:#000000;fill-opacity:1;stroke:#000000;stroke-width:1px;stroke-linecap:butt;stroke-linejoin:miter;stroke-opacity:1"
       d="M 200,463.53332 V 453.53332 L 190,533.53332 180,563.53332 190,593.53332 210,603.53332 240,613.53332 280,623.53332 H 380 440 L 480,613.53332 C 480,613.53332 500,593.53332 490,583.53332 480,573.53332 470,543.53332 470,543.53332 H 460 C 460,543.53332 450,593.53332 440,593.53332 430,593.53332 310,603.53332 310,603.53332 H 260 C 260,603.53332 220,593.53332 220,593.53332 220,593.53332 190,593.53332 200,553.53332 210,513.53332 210,493.53332 210,493.53332 210,493.53332 200,463.53332 200,463.53332 Z"
       id="path848"
       inkscape:connector-curvature="0" />
    <path
       style="fill:#000000;fill-opacity:1;stroke:#000000;stroke-width:1px;stroke-linecap:butt;stroke-linejoin:miter;stroke-opacity:1"
       d="M 270,393.53332 C 280,423.53332 283.33333,413.53332 290,423.53332 L 340,403.53332 270,533.53332 260,543.53332 C 270,533.53332 290,533.53332 290,533.53332 L 330,473.53332 350,423.53332 370,393.53332 H 390 L 400,403.53332 C 400,403.53332 380,533.53332 370,533.53332 360,533.53332 360,513.53332 360,513.53332 V 573.53332 L 370,583.53332 390,533.53332 420,413.53332 430,403.53332 C 430,403.53332 412.36068,373.53332 390,373.53332 380,373.53332 390,343.53332 340,333.53332 330.19419,331.57216 330,343.53332 330,343.53332 L 350,363.53332 C 350,363.53332 360,383.53332 350,383.53332 340,383.53332 270,393.53332 270,393.53332 Z"
       id="path850"
       inkscape:connector-curvature="0"
       sodipodi:nodetypes="cccccccccccsccccccssccsc" />
  </g>
</svg>
