<?xml version="1.0" encoding="UTF-8" standalone="no"?>
<!-- Created with Inkscape (http://www.inkscape.org/) -->

<svg
   xmlns:dc="http://purl.org/dc/elements/1.1/"
   xmlns:cc="http://creativecommons.org/ns#"
   xmlns:rdf="http://www.w3.org/1999/02/22-rdf-syntax-ns#"
   xmlns:svg="http://www.w3.org/2000/svg"
   xmlns="http://www.w3.org/2000/svg"
   xmlns:sodipodi="http://sodipodi.sourceforge.net/DTD/sodipodi-0.dtd"
   xmlns:inkscape="http://www.inkscape.org/namespaces/inkscape"
   width="512"
   height="512"
   viewBox="0 0 512 512"
   version="1.1"
   id="svg8"
   inkscape:version="0.92.4 (5da689c313, 2019-01-14)"
   sodipodi:docname="1.svg">
  <defs
     id="defs2" />
  <sodipodi:namedview
     id="base"
     pagecolor="#ffffff"
     bordercolor="#666666"
     borderopacity="1.0"
     inkscape:pageopacity="0.0"
     inkscape:pageshadow="2"
     inkscape:zoom="1.6685239"
     inkscape:cx="218.7045"
     inkscape:cy="261.10542"
     inkscape:document-units="px"
     inkscape:current-layer="layer1"
     showgrid="true"
     units="px"
     inkscape:window-width="1920"
     inkscape:window-height="1001"
     inkscape:window-x="-9"
     inkscape:window-y="-9"
     inkscape:window-maximized="1">
    <inkscape:grid
       type="xygrid"
       id="grid815" />
  </sodipodi:namedview>
  <metadata
     id="metadata5">
    <rdf:RDF>
      <cc:Work
         rdf:about="">
        <dc:format>image/svg+xml</dc:format>
        <dc:type
           rdf:resource="http://purl.org/dc/dcmitype/StillImage" />
        <dc:title></dc:title>
      </cc:Work>
    </rdf:RDF>
  </metadata>
  <g
     inkscape:label="圖層 1"
     inkscape:groupmode="layer"
     id="layer1"
     transform="translate(0,-161.53332)">
    <path
       style="fill:#000000;fill-opacity:1;stroke:none;stroke-width:1.00157475;stroke-linecap:butt;stroke-linejoin:miter;stroke-miterlimit:4;stroke-dasharray:none;stroke-opacity:1"
       d="M 225,183.53332 C 225,183.53332 210,193.53332 230,208.53332 250,223.53332 255,228.53332 255,228.53332 255,228.53332 265,223.53332 245,203.53332 225,183.53332 225,183.53332 225,183.53332 Z"
       id="path1073"
       inkscape:connector-curvature="0" />
    <path
       style="fill:#000000;fill-opacity:1;stroke:#000000;stroke-width:1px;stroke-linecap:butt;stroke-linejoin:miter;stroke-opacity:1"
       d="M 125,283.53332 C 120,288.53332 145,308.53332 150,308.53332 155,308.53332 280,273.53332 325,273.53332 370.27693,273.53332 410,268.53332 420,278.53332 430,288.53332 415,238.53332 399.60601,246.73532 381.41185,256.42927 330,258.53332 330,258.53332 L 200,278.53332 Z"
       id="path1075"
       inkscape:connector-curvature="0"
       sodipodi:nodetypes="cssssccc" />
    <path
       style="fill:#000000;fill-opacity:1;stroke:#000000;stroke-width:1px;stroke-linecap:butt;stroke-linejoin:miter;stroke-opacity:1"
       d="M 130,313.53332 C 130,313.53332 130,378.53332 110,443.53332 90,508.53332 90,513.53332 85,518.53332 80,523.53332 45,598.53332 45,598.53332 45,598.53332 20,653.53332 45,623.53332 70,593.53332 100,533.53332 100,533.53332 L 135,418.53332 155,353.53332 C 155,353.53332 140,308.53332 130,313.53332 Z"
       id="path1077"
       inkscape:connector-curvature="0" />
    <path
       style="fill:#000000;fill-opacity:1;stroke:#000000;stroke-width:1px;stroke-linecap:butt;stroke-linejoin:miter;stroke-opacity:1"
       d="M 190,338.53332 C 190,338.53332 170,393.53332 165,393.53332 160,393.53332 195,378.53332 195,378.53332 L 210,368.53332 C 210,368.53332 200,328.53332 190,338.53332 Z"
       id="path1079"
       inkscape:connector-curvature="0" />
    <path
       style="fill:#000000;fill-opacity:1;stroke:#000000;stroke-width:1px;stroke-linecap:butt;stroke-linejoin:miter;stroke-opacity:1"
       d="M 250,333.53332 C 250,333.53332 280,368.53332 285,348.53332 290,328.53332 250,333.53332 250,333.53332 Z"
       id="path1081"
       inkscape:connector-curvature="0"
       sodipodi:nodetypes="csc" />
    <path
       style="fill:#000000;fill-opacity:1;stroke:#000000;stroke-width:1px;stroke-linecap:butt;stroke-linejoin:miter;stroke-opacity:1"
       d="M 175,413.53332 185,428.53332 200,433.53332 235,413.53332 275,408.53332 285,398.53332 265,393.53332 C 265,393.53332 175,418.53332 175,413.53332 Z"
       id="path1083"
       inkscape:connector-curvature="0"
       sodipodi:nodetypes="cccccccc" />
    <path
       style="fill:#000000;fill-opacity:1;stroke:#000000;stroke-width:1px;stroke-linecap:butt;stroke-linejoin:miter;stroke-opacity:1"
       d="M 145,458.53332 C 145,458.53332 180,498.53332 170,503.53332 160,508.53332 135,523.53332 130,518.53332 125,513.53332 130,548.53332 145,543.53332 160,538.53332 220,488.53332 215,508.53332 210,528.53332 205,578.53332 205,578.53332 V 583.53332 L 185,573.53332 C 185,573.53332 203.59599,615.33132 208.59599,615.33132 213.59599,615.33132 218.59599,565.33132 223.59599,540.33132 228.59599,515.33132 230,498.53332 230,498.53332 L 265,483.53332 C 265,483.53332 260,468.53332 245,473.53332 L 230,478.53332 235,453.53332 C 235,453.53332 205,428.53332 205,438.53332 205,448.53332 220,483.53332 215,483.53332 210,483.53332 190,498.53332 190,498.53332 V 473.53332 C 190,473.53332 145,453.53332 145,458.53332 Z"
       id="path1085"
       inkscape:connector-curvature="0"
       sodipodi:nodetypes="csssscccssccsccssccc" />
    <path
       style="fill:#000000;fill-opacity:1;stroke:#000000;stroke-width:1px;stroke-linecap:butt;stroke-linejoin:miter;stroke-opacity:1"
       d="M 330,308.53332 C 330,308.53332 323.0953,351.29971 330,358.53332 332.98029,361.65558 309.78041,423.92271 307.00334,427.93399 302.97838,433.74774 295,438.53332 295,438.53332 295,438.53332 285,468.53332 300,458.53332 315,448.53332 330,398.53332 330,398.53332 L 345,423.53332 C 345,423.53332 360,433.53332 385,423.53332 410,413.53332 415,413.53332 415,413.53332 415,413.53332 360,468.53332 355,468.53332 350,468.53332 350,443.53332 350,443.53332 L 335,433.53332 H 325 L 330,453.53332 C 330,453.53332 335,508.53332 325,508.53332 H 310 L 320,518.53332 300,558.53332 C 300,558.53332 265.59933,580.53666 265.59933,575.53666 265.59933,570.53666 260,568.53332 260,568.53332 L 255,588.53332 C 255,588.53332 260,603.53332 285,588.53332 310,573.53332 325,553.53332 325,553.53332 L 335,528.53332 415,583.53332 455,613.53332 470,628.53332 C 470,628.53332 510,633.53332 490,608.53332 470,583.53332 455,573.53332 455,573.53332 L 400,543.53332 360,523.53332 340,518.53332 350,478.53332 400,458.53332 435,433.53332 450,423.53332 C 450,423.53332 470,428.53332 460,403.53332 450,378.53332 440,383.53332 440,383.53332 L 435,378.53332 430,388.53332 405,393.53332 365,403.53332 345,393.53332 340,388.53332 355,343.53332 V 333.53332 C 355,333.53332 320,313.53332 330,308.53332 Z"
       id="path1087"
       inkscape:connector-curvature="0"
       sodipodi:nodetypes="csscsccscsccccscccsccscccccsccccccccscccccccccc" />
  </g>
</svg>
