<?xml version="1.0" encoding="UTF-8" standalone="no"?>
<!-- Created with Inkscape (http://www.inkscape.org/) -->

<svg
   xmlns:dc="http://purl.org/dc/elements/1.1/"
   xmlns:cc="http://creativecommons.org/ns#"
   xmlns:rdf="http://www.w3.org/1999/02/22-rdf-syntax-ns#"
   xmlns:svg="http://www.w3.org/2000/svg"
   xmlns="http://www.w3.org/2000/svg"
   xmlns:sodipodi="http://sodipodi.sourceforge.net/DTD/sodipodi-0.dtd"
   xmlns:inkscape="http://www.inkscape.org/namespaces/inkscape"
   width="512"
   height="512"
   viewBox="0 0 512 512"
   version="1.1"
   id="svg8"
   inkscape:version="0.92.4 (5da689c313, 2019-01-14)"
   sodipodi:docname="圖畫.svg">
  <defs
     id="defs2" />
  <sodipodi:namedview
     id="base"
     pagecolor="#ffffff"
     bordercolor="#666666"
     borderopacity="1.0"
     inkscape:pageopacity="0.0"
     inkscape:pageshadow="2"
     inkscape:zoom="0.98994949"
     inkscape:cx="-61.177523"
     inkscape:cy="206.7139"
     inkscape:document-units="px"
     inkscape:current-layer="layer1"
     showgrid="false"
     units="px"
     inkscape:window-width="1920"
     inkscape:window-height="1001"
     inkscape:window-x="-9"
     inkscape:window-y="-9"
     inkscape:window-maximized="1"
     showguides="true"
     inkscape:guide-bbox="true">
    <inkscape:grid
       type="xygrid"
       id="grid4529" />
    <sodipodi:guide
       position="530,-30.714286"
       orientation="0,1"
       id="guide4694"
       inkscape:locked="false" />
  </sodipodi:namedview>
  <metadata
     id="metadata5">
    <rdf:RDF>
      <cc:Work
         rdf:about="">
        <dc:format>image/svg+xml</dc:format>
        <dc:type
           rdf:resource="http://purl.org/dc/dcmitype/StillImage" />
        <dc:title></dc:title>
      </cc:Work>
    </rdf:RDF>
  </metadata>
  <g
     inkscape:label="圖層 1"
     inkscape:groupmode="layer"
     id="layer1"
     transform="translate(0,-161.53332)">
    <path
       style="fill:#000000;fill-opacity:1;stroke:#000000;stroke-width:0.87214452px;stroke-linecap:butt;stroke-linejoin:miter;stroke-opacity:1"
       d="M 46.704331,306.24408 C 46.704331,306.24408 69.37022,318.666 82.132271,335.16279 94.445701,351.07965 97.632001,388.18041 85.675071,391.24755 68.18842,395.73314 25.004716,410.08852 25.004716,410.08852 25.004716,410.08852 39.618742,434.18743 56.447015,431.99663 76.509922,429.38471 88.332171,421.04258 88.332171,421.04258 L 75.932384,520.94355 20.133374,544.60431 C 20.133374,544.60431 28.127043,603.5583 52.018523,570.89403 76.37523,537.59371 175.13062,483.69977 175.13062,483.69977 L 190.63034,456.53371 111.36033,502.54073 H 103.38904 C 103.38904,502.54073 106.93184,456.09555 112.24603,454.3429 117.56022,452.59025 103.38904,411.40301 121.10301,408.77403 138.81698,406.14506 187.72789,395.72715 165.83078,387.74225 139.15627,378.01524 122.43156,381.60797 122.43156,381.60797 122.43156,381.60797 142.80262,295.7282 46.704331,306.24408 Z"
       id="path4678"
       inkscape:connector-curvature="0"
       sodipodi:nodetypes="csscscccsccccssscc" />
    <path
       style="fill:#000000;fill-opacity:1;stroke:#000000;stroke-width:0.87214452px;stroke-linecap:butt;stroke-linejoin:miter;stroke-opacity:1"
       d="M 253.59595,268.11054 C 253.59595,268.11054 279.27356,299.09329 287.41525,304.67018 295.55694,310.24708 307.45633,323.25983 307.45633,323.25983 307.45633,323.25983 258.60621,334.41361 254.22223,328.21707 249.83824,322.02052 239.19142,357.9605 301.19349,341.22982 363.19555,324.49913 394.50972,320.78121 394.50972,320.78121 L 480.31056,319.54189 C 488.82205,329.01597 437.2048,420.18939 431.46045,415.5884 L 407.66167,416.20806 V 416.20806 C 407.66167,416.20806 355.05386,413.72943 350.0436,419.92598 345.03332,426.12254 370.71094,377.78945 370.71094,377.78945 L 408.28796,364.15705 V 364.15705 C 408.28796,364.15705 375.69423,356.54257 367.57954,361.05878 367.57954,361.05878 347.01039,327.09702 337.51793,338.13155 325.46929,352.13748 336.26536,367.25532 336.26536,367.25532 L 295.55694,370.97325 291.79923,383.36635 306.83004,395.13979 327.49739,386.46463 333.13394,388.94325 C 333.13394,388.94325 330.00252,412.49013 326.87111,414.96875 323.7397,417.44737 319.98199,424.26357 319.98199,424.26357 L 257.35364,426.74219 251.09081,396.3791 C 251.09081,396.3791 256.10108,372.83222 239.81771,355.48188 223.53434,338.13155 206.62469,325.73844 206.62469,325.73844 206.62469,325.73844 209.75611,328.83672 221.0292,366.01601 232.3023,403.1953 234.18116,439.75494 234.18116,439.75494 L 263.61648,449.04977 279.27356,454.00701 C 279.27356,454.00701 332.50767,431.07977 364.44812,432.31909 396.38857,433.5584 408.91424,433.5584 408.91424,433.5584 L 413.92451,438.51563 C 413.92451,438.51563 401.39883,465.78045 402.65141,470.73769 403.90398,475.69493 407.66167,478.17355 407.66167,478.17355 L 418.93477,457.10527 430.83416,448.43011 C 430.83416,448.43011 500.35163,331.31533 505.36189,335.65292 510.37216,339.99051 513.50358,305.90948 464.65347,305.90948 415.80337,305.90948 368.8321,314.58466 368.8321,314.58466 368.8321,314.58466 398.26743,273.68743 424.57133,274.92674 450.87524,276.16605 406.40911,238.36711 406.40911,238.36711 406.40911,238.36711 400.77256,227.83297 386.99432,257.5764 373.21609,287.31984 356.93271,310.86673 356.93271,310.86673 356.93271,310.86673 328.12368,328.21707 325.61854,321.40086 L 323.11341,314.58466 C 323.11341,314.58466 311.21402,255.71744 253.59595,268.11054 Z"
       id="path4680"
       inkscape:connector-curvature="0"
       sodipodi:nodetypes="cscssccsccscccssccccccscccscscccsccccccsscscscscc" />
    <path
       style="fill:#000000;fill-opacity:1;stroke:#000000;stroke-width:0.87214452px;stroke-linecap:butt;stroke-linejoin:miter;stroke-opacity:1"
       d="M 274.88958,475.69493 C 271.80092,504.58202 270.84322,546.8972 261.11135,579.1773 257.26021,591.95128 257.1278,613.91247 269.87931,618.21556 274.50888,619.77783 278.81703,613.17316 281.15242,608.92073 283.66209,604.35095 282.62168,598.61438 283.03127,593.42936 284.36603,576.53233 282.24872,559.36041 284.91012,542.61766 286.46052,532.86404 291.49216,523.86572 293.0518,514.11353 293.90075,508.80527 295.42871,503.09005 293.67808,498.0025 290.52517,488.83967 275.91877,466.06933 274.88958,475.69493 Z"
       id="path4686"
       inkscape:connector-curvature="0"
       sodipodi:nodetypes="ssaaaaaas" />
    <path
       style="fill:#000000;fill-opacity:1;stroke:#000000;stroke-width:0.87214452px;stroke-linecap:butt;stroke-linejoin:miter;stroke-opacity:1"
       d="M 288.04153,483.13078 C 288.04153,483.13078 381.98405,462.68218 386.99432,465.1608 392.00459,467.63941 429.58159,491.80595 419.56106,502.34009 409.54053,512.87422 392.63087,628.74969 392.63087,628.74969 392.63087,628.74969 370.71094,652.29657 365.0744,628.74969 359.43785,605.2028 383.23662,512.87422 383.23662,512.87422 383.23662,512.87422 377.60007,481.27182 368.8321,484.3701 360.06413,487.46837 294.93065,498.62217 294.93065,498.62217 Z"
       id="path4688"
       inkscape:connector-curvature="0" />
    <path
       style="fill:#000000;fill-opacity:1;stroke:#000000;stroke-width:0.87214452px;stroke-linecap:butt;stroke-linejoin:miter;stroke-opacity:1"
       d="M 366.95325,612.019 C 366.95325,612.019 313.71915,599.00625 285.5364,608.92073 257.35364,618.83521 283.65755,594.66866 283.65755,594.66866 L 331.88138,586.61316 366.32696,588.47212 Z"
       id="path4690"
       inkscape:connector-curvature="0" />
    <path
       style="fill:#000000;fill-opacity:1;stroke:#000000;stroke-width:0.87214452px;stroke-linecap:butt;stroke-linejoin:miter;stroke-opacity:1"
       d="M 338.7705,550.05351 C 328.33247,550.02513 302.82575,549.90926 308.70889,541.37835 308.70889,541.37835 331.04068,525.28582 343.15448,527.74594 346.62492,528.45074 349.13518,532.02246 350.66988,535.18179 352.30769,538.5534 354.02883,543.22912 351.92244,546.33559 349.38229,550.08178 343.32989,550.06591 338.7705,550.05351 Z"
       id="path4692"
       inkscape:connector-curvature="0"
       sodipodi:nodetypes="asaaaa" />
  </g>
</svg>
