<?xml version="1.0" encoding="UTF-8" standalone="no"?>
<!-- Created with Inkscape (http://www.inkscape.org/) -->

<svg
   xmlns:dc="http://purl.org/dc/elements/1.1/"
   xmlns:cc="http://creativecommons.org/ns#"
   xmlns:rdf="http://www.w3.org/1999/02/22-rdf-syntax-ns#"
   xmlns:svg="http://www.w3.org/2000/svg"
   xmlns="http://www.w3.org/2000/svg"
   xmlns:sodipodi="http://sodipodi.sourceforge.net/DTD/sodipodi-0.dtd"
   xmlns:inkscape="http://www.inkscape.org/namespaces/inkscape"
   width="512"
   height="512"
   viewBox="0 0 512 512"
   version="1.1"
   id="svg8"
   inkscape:version="0.92.4 (5da689c313, 2019-01-14)"
   sodipodi:docname="圖畫.svg">
  <defs
     id="defs2" />
  <sodipodi:namedview
     id="base"
     pagecolor="#ffffff"
     bordercolor="#666666"
     borderopacity="1.0"
     inkscape:pageopacity="0.0"
     inkscape:pageshadow="2"
     inkscape:zoom="1.4"
     inkscape:cx="196.89236"
     inkscape:cy="237.55808"
     inkscape:document-units="px"
     inkscape:current-layer="layer1"
     showgrid="false"
     units="px"
     inkscape:snap-center="true"
     inkscape:snap-intersection-paths="false"
     inkscape:window-width="1920"
     inkscape:window-height="1001"
     inkscape:window-x="-9"
     inkscape:window-y="-9"
     inkscape:window-maximized="1">
    <inkscape:grid
       type="xygrid"
       id="grid3732" />
  </sodipodi:namedview>
  <metadata
     id="metadata5">
    <rdf:RDF>
      <cc:Work
         rdf:about="">
        <dc:format>image/svg+xml</dc:format>
        <dc:type
           rdf:resource="http://purl.org/dc/dcmitype/StillImage" />
        <dc:title></dc:title>
      </cc:Work>
    </rdf:RDF>
  </metadata>
  <g
     inkscape:label="圖層 1"
     inkscape:groupmode="layer"
     id="layer1"
     transform="translate(0,-161.5333)">
    <path
       style="fill:#000000;fill-opacity:1;stroke:#000000;stroke-width:1px;stroke-linecap:butt;stroke-linejoin:miter;stroke-opacity:1"
       d="M 202.02031,176.94256 C 205.75148,171.41782 215.45625,175.77739 222.02031,176.94256 228.30526,178.05819 240,183.5333 240,183.5333 L 267.14286,207.81901 269.28571,217.10473 C 269.28571,217.10473 353.02896,208.89792 394.62119,202.68159 402.17084,201.55322 417.14286,198.5333 417.14286,198.5333 L 427.85714,193.5333 C 427.85714,193.5333 443.57143,193.5333 449.28571,204.24758 455,214.96187 468.47353,232.66446 458.57143,239.96187 450.63532,245.81043 439.18017,249.9879 428.57143,251.39044 420.72771,252.42743 409.23774,255.64876 404.95668,248.99505 400.10862,241.46009 417.4888,231.59144 413.57143,223.5333 410.6101,217.44176 394.41198,216.76553 394.41198,216.76553 L 268.57143,226.39044 C 268.57143,226.39044 266.42486,231.80514 255.42213,243.99133 243.16204,257.57013 237.85714,229.96187 237.85714,229.96187 237.85714,229.96187 198.26566,231.33747 179.28571,236.39044 169.49712,238.99642 151.42857,248.5333 151.42857,248.5333 151.42857,248.5333 141.4182,241.2321 140,235.67616 139.21434,232.59826 142.14286,226.39044 142.14286,226.39044 L 231.42857,218.5333 210.71429,198.5333 C 210.71429,198.5333 197.67808,183.3721 202.02031,176.94256 Z"
       id="path3734"
       inkscape:connector-curvature="0"
       sodipodi:nodetypes="aacccaccssaaaccscacaccca" />
    <path
       style="fill:#000000;fill-opacity:1;stroke:#000000;stroke-width:1px;stroke-linecap:butt;stroke-linejoin:miter;stroke-opacity:1"
       d="M 75.256365,217.44943 C 78.233432,207.96691 94.549592,224.03211 102.02541,230.58141 107.50452,235.38147 112.70948,241.62314 114.14724,248.76415 116.07631,258.34539 111.64457,268.26912 108.5914,277.5535 102.35729,296.51078 92.789894,315.66764 82.832509,331.59666 82.743267,331.73942 82.951557,331.98269 82.832509,332.10174 79.142033,335.79222 69.888528,336.56008 67.175144,332.10174 64.317369,327.40615 72.892295,322.62749 74.751288,317.45453 79.877254,303.19066 80.364774,287.6321 84.347738,273.00782 88.356552,258.28863 70.793798,231.66355 75.256365,217.44943 Z"
       id="path3738"
       inkscape:connector-curvature="0"
       sodipodi:nodetypes="saaasaaass" />
    <path
       style="fill:#000000;fill-opacity:1;stroke:#000000;stroke-width:1px;stroke-linecap:butt;stroke-linejoin:miter;stroke-opacity:1"
       d="M 174.25131,256.3403 C 169.46141,266.5856 164.67875,281.19755 156.57364,289.67533 154.84408,291.48442 152.60651,294.70055 154.04826,296.7464 157.83059,302.11354 167.73735,299.39318 173.74624,296.7464 183.56114,292.42316 196.11398,283.71299 195.46452,273.00781 194.99454,265.2611 184.37569,261.95671 177.78685,257.85553 176.69831,257.17798 174.79434,255.17879 174.25131,256.3403 Z"
       id="path3740"
       inkscape:connector-curvature="0"
       sodipodi:nodetypes="ssaaaas" />
    <path
       style="fill:#000000;fill-opacity:1;stroke:#000000;stroke-width:1px;stroke-linecap:butt;stroke-linejoin:miter;stroke-opacity:1"
       d="M 276.7818,236.64232 C 272.37704,241.04708 274.88984,249.39514 276.7818,255.33015 278.72557,261.42767 283.51106,266.32356 287.89348,270.98751 291.74655,275.0881 296.15164,278.78219 301.02546,281.59411 307.11893,285.1097 313.69139,289.3708 320.72343,289.17026 326.44778,289.00701 336.12068,287.81995 336.3808,282.09918 336.84654,271.85646 316.63833,274.414 309.61176,266.9469 304.09057,261.07956 304.84942,250.77423 299.00515,245.22862 293.69718,240.1919 285.97219,238.10275 278.8021,236.64232 278.14222,236.50791 277.25799,236.16613 276.7818,236.64232 Z"
       id="path3744"
       inkscape:connector-curvature="0"
       sodipodi:nodetypes="aaaaaaaaaa" />
    <path
       style="fill:#000000;fill-opacity:1;stroke:#000000;stroke-width:1px;stroke-linecap:butt;stroke-linejoin:miter;stroke-opacity:1"
       d="M 131.31983,311.39361 155.05842,308.86823 C 155.05842,308.86823 179.80715,318.46468 176.7767,326.04082 173.74624,333.61697 177.28177,338.16265 177.28177,338.16265 L 196.97975,333.11189 214.65742,335.63727 225.76909,343.71849 C 225.76909,343.71849 221.72848,351.79971 209.60665,351.29464 197.48482,350.78956 148.49242,360.89109 148.49242,360.89109 L 127.7843,371.49769 C 127.7843,371.49769 116.16754,372.50784 113.64216,354.3251 L 158.08887,345.23372 C 158.08887,345.23372 154.04826,319.47483 147.48227,320.99006 140.91628,322.50529 126.77414,311.89868 131.31983,311.39361 Z"
       id="path3746"
       inkscape:connector-curvature="0" />
    <path
       style="fill:#000000;fill-opacity:1;stroke:#000000;stroke-width:1px;stroke-linecap:butt;stroke-linejoin:miter;stroke-opacity:1"
       d="M 176.06241,370.42626 C 176.06241,370.42626 178.32746,381.91219 177.78685,387.66013 177.06355,395.35054 177.12962,404.90834 171.22086,409.88349 163.44126,416.43387 150.43109,417.01042 140.91628,413.41902 134.55896,411.01943 133.05827,401.8411 127.27922,398.26673 120.29687,393.94811 109.19337,385.74674 103.54064,391.70074 97.675573,397.87839 118.45004,410.79332 111.62186,415.9444 82.832509,437.66268 39.068016,420.03857 3.0304576,437.1576 -1.2057983,439.16996 5.0179099,446.73831 8.0812204,450.28959 13.891776,457.02574 23.883623,468.31207 31.314729,463.42157 48.992849,451.78739 64.739479,444.08644 82.832509,437.66268 98.922592,431.95005 116.11614,430.0155 132.83506,426.551 145.92948,423.83757 159.03609,421.14753 172.23101,418.97486 180.78265,417.56675 189.32591,415.65986 197.9899,415.43932 209.8144,415.13834 221.76913,416.04016 233.34524,418.46978 238.01954,419.45083 244.17014,419.17605 246.90863,423.08913 259.83272,441.55662 246.24862,468.1686 245.46707,490.69569 244.85927,508.21468 240.6109,525.84973 242.94169,543.22362 244.96632,558.31535 249.50861,573.45126 257.08382,586.66018 262.12662,595.45334 268.6303,604.11478 277.28687,609.38861 290.64274,617.52538 307.21633,619.13835 322.74374,621.00537 338.12289,622.85456 353.72601,620.90037 369.21076,620.50029 385.71815,620.07379 402.28515,620.1999 418.70823,618.47999 428.72827,617.43064 438.88333,616.408 448.50773,613.42922 457.71877,610.57838 471.08428,610.21657 474.7717,601.30739 480.5366,587.37882 464.76893,572.8547 459.11433,558.88099 456.76744,553.08133 456.93893,538.54991 451.53819,541.70839 441.95606,547.31225 445.47138,572.05899 436.89098,583.12465 431.99957,589.43282 423.18494,591.52316 415.67777,594.23633 406.6097,597.51362 396.95874,599.08203 387.3935,600.29724 375.35789,601.8263 363.15773,601.55988 351.02801,601.81247 338.23552,602.07886 325.38578,602.96156 312.64221,601.81247 303.2687,600.96726 293.26891,600.99469 284.86302,596.76171 278.26732,593.44029 272.90073,587.68346 268.70058,581.60942 265.69533,577.26339 261.84378,572.18582 262.63966,566.96221 262.83772,565.66229 263.89654,564.27807 265.16504,563.93175 269.99398,562.61339 274.34131,568.35256 279.30718,568.98251 292.22077,570.62068 305.20459,566.2308 318.19805,565.44698 329.46263,564.76746 341.34946,559.80836 352.03816,564.43683 357.58497,566.83873 363.84839,561.8486 369.71583,560.39621 374.78995,559.14019 381.08524,559.96311 384.86812,556.3556 387.68097,553.67315 389.63092,548.93195 388.40365,545.24393 387.48906,542.49556 384.01553,541.28488 381.33259,540.19316 377.23037,538.52392 372.47299,539.33956 368.2006,538.17286 366.45137,537.69518 364.9628,536.18653 363.14984,536.15255 353.14027,535.96493 344.60937,543.95512 334.86557,546.25408 314.39885,551.08302 298.56861,551.45776 272.23611,553.83022 249.23274,555.90274 272.19881,496.79255 274.25642,466.9571 277.28687,423.01547 360.11938,429.58146 360.11938,429.58146 364.89602,429.95949 366.43147,420.3985 364.66507,415.9444 361.91594,409.01226 352.24146,406.97971 344.96709,405.3378 341.67844,404.59552 337.61456,407.79461 334.86557,405.84288 332.433,404.1158 327.70896,404.5181 332.34019,397.25658 363.58028,348.27387 321.22561,352.03314 312.61683,410.44984 L 315.35714,410.67616 309.64286,412.10473 301.78571,413.89044 288.92857,417.10473 280.35714,418.89044 273.21429,423.89044 265.71429,423.17616 268.21429,416.74759 265.35714,410.67616 255.71429,403.89044 247.5,401.39044 H 236.07143 L 229.28571,402.81901 215,406.39044 197.85714,407.46187 190,405.67616 194.28571,398.5333 200.71429,388.89044 196.07143,376.39044 Z"
       id="path3748"
       inkscape:connector-curvature="0"
       sodipodi:nodetypes="caaaaassasaaaaaaaaaaaaaaaassaaaaaaaaaasaaaaaaasssaaasc" />
    <path
       style="fill:#000000;fill-opacity:1;stroke:#000000;stroke-width:1px;stroke-linecap:butt;stroke-linejoin:miter;stroke-opacity:1"
       d="M 360.11938,366.44693 Z"
       id="path3750"
       inkscape:connector-curvature="0" />
    <path
       style="fill:#000000;fill-opacity:1;stroke:#000000;stroke-width:1px;stroke-linecap:butt;stroke-linejoin:miter;stroke-opacity:1"
       d="M 360.11938,366.44693 C 360.11938,366.44693 369.68837,352.9847 366.68538,346.74895 364.35126,341.90211 355.54434,344.77777 351.53309,341.19311 349.84885,339.68799 349.4811,337.16803 348.50263,335.1322 347.45841,332.95958 347.57138,329.7511 345.47217,328.56621 342.81685,327.06743 339.186,328.38141 336.3808,329.57636 333.96132,330.607 331.89142,332.51848 330.31988,334.62712 329.55368,335.65519 329.75633,337.30341 328.80465,338.16265 324.61516,341.94519 318.12144,341.85788 312.64221,343.21342 306.32732,344.7757 299.87189,345.715 293.44931,346.74895 288.58333,347.53231 283.21571,346.57576 278.8021,348.76926 275.17744,350.57066 269.70536,353.34025 270.21581,357.35555 271.59587,368.2115 287.55863,374.22558 298.50007,374.02307 360.11938,366.44693 314.04569,375.24276 360.11938,366.44693"
       id="path3752"
       inkscape:connector-curvature="0"
       sodipodi:nodetypes="caaaaaaaaaaacc" />
    <path
       style="fill:#000000;fill-opacity:1;stroke:#000000;stroke-width:1px;stroke-linecap:butt;stroke-linejoin:miter;stroke-opacity:1"
       d="M 281.32748,517.46473 C 274.76738,521.74292 294.80236,528.773 302.54069,527.56626 324.68718,524.11265 340.28492,518.39816 361.12954,513.9292 373.03474,511.3768 374.45157,493.57243 368.70568,496.25153 347.98692,505.91193 306.1312,501.28891 281.32748,517.46473 Z"
       id="path3767"
       inkscape:connector-curvature="0"
       sodipodi:nodetypes="sssss" />
    <path
       style="fill:#000000;fill-opacity:1;stroke:#000000;stroke-width:1px;stroke-linecap:butt;stroke-linejoin:miter;stroke-opacity:1"
       d="M 294.45947,469.98756 C 289.7147,473.61312 300.11692,483.24476 306.07622,483.62462 321.64016,484.61669 338.80697,470.79138 356.07877,469.48249 360.13918,469.17478 364.94391,473.44222 368.2006,470.99771 371.6096,468.43887 372.0205,462.2348 370.22091,458.37081 368.97753,455.70108 365.40846,454.84268 362.64476,453.82512 359.76171,452.76362 356.49681,451.42953 353.55339,452.30989 334.04356,458.14514 308.36635,459.36107 294.45947,469.98756 Z"
       id="path3769"
       inkscape:connector-curvature="0"
       sodipodi:nodetypes="ssaaaass" />
    <path
       style="fill:#000000;fill-opacity:1;stroke:#000000;stroke-width:1px;stroke-linecap:butt;stroke-linejoin:miter;stroke-opacity:1"
       d="M 110.10663,473.5231 V 510.39366 L 108.08632,538.17286 C 108.08632,538.17286 104.55079,570.49774 103.54064,573.02312 102.53048,575.5485 97.479721,604.84293 97.479721,604.84293 97.479721,604.84293 101.01525,632.62212 107.07617,631.10689 113.13709,629.59166 111.62186,602.31755 111.62186,602.31755 L 112.12693,577.06373 118.18785,554.3353 125.76399,530.09164 120.71323,509.38351 127.27922,488.17031 123.74369,477.56371 C 123.74369,477.56371 111.62186,468.47233 110.10663,473.5231 Z"
       id="path4679"
       inkscape:connector-curvature="0" />
    <path
       style="fill:#000000;fill-opacity:1;stroke:#000000;stroke-width:1px;stroke-linecap:butt;stroke-linejoin:miter;stroke-opacity:1"
       d="M 151.52288,468.97741 H 177.28177 L 183.34269,487.16016 179.80715,529.58656 C 179.80715,529.58656 178.29192,544.23377 178.29192,547.76931 178.29192,551.30484 175.76654,587.67033 175.26147,593.73125 139.40105,580.59926 157.07872,607.87338 157.07872,607.87338 157.07872,607.87338 172.27969,618.90108 170.21071,650.2998 168.06941,682.79615 195.46452,621.00537 195.46452,621.00537 195.46452,621.00537 199.50513,627.06628 193.94929,585.14495 188.39345,543.22362 194.95944,502.31244 194.95944,502.31244 L 204.55589,482.61447 C 204.55589,482.61447 217.1828,482.10939 213.64726,470.99771 210.11173,459.88604 200.0102,447.25913 200.0102,447.25913 L 190.91883,438.67283 187.88837,439.17791 180.31223,452.30989 163.64471,455.34035 155.05842,462.41142 153.54319,466.9571 Z"
       id="path4681"
       inkscape:connector-curvature="0"
       sodipodi:nodetypes="ccccsccscsccscccccccc" />
    <path
       style="fill:#000000;fill-opacity:1;stroke:#000000;stroke-width:1px;stroke-linecap:butt;stroke-linejoin:miter;stroke-opacity:1"
       d="M 125.76399,530.09164 C 131.85388,530.48932 127.62991,544.60553 133.34014,546.75916 140.24983,549.36517 146.51069,539.92145 153.54319,537.66778 159.26577,535.83389 165.26083,534.89979 171.22086,534.13225 174.06442,533.76605 177.53892,531.87358 179.80715,533.62717 183.99621,536.86576 187.89953,547.47215 182.89738,549.20859 170.24567,553.60049 159.05435,555.76014 146.9772,558.37591 142.2971,559.38957 137.58607,561.50025 132.83506,560.90129 125.40096,559.96407 114.54442,558.75444 112.37947,551.58108 109.94119,543.50207 117.34299,529.54173 125.76399,530.09164 Z"
       id="path4685"
       inkscape:connector-curvature="0"
       sodipodi:nodetypes="aaaaasaaaa" />
    <path
       style="fill:#000000;fill-opacity:1;stroke:#000000;stroke-width:1px;stroke-linecap:butt;stroke-linejoin:miter;stroke-opacity:1"
       d="M 130.81475,503.3226 C 126.62153,509.39442 136.79947,518.2911 143.44166,521.50534 145.87115,522.681 149.02388,522.01987 151.52288,521.00027 156.05423,519.15146 158.68138,514.28889 162.63456,511.40382 165.50335,509.31015 170.86358,509.29323 171.72593,505.84798 172.53219,502.6268 169.70208,498.62692 166.67517,497.26168 156.20087,492.53743 144.32138,504.13401 132.83506,503.82767 132.14114,503.80916 131.20922,502.75141 130.81475,503.3226 Z"
       id="path4687"
       inkscape:connector-curvature="0"
       sodipodi:nodetypes="aaaaaaaa" />
  </g>
</svg>
