<?xml version="1.0" encoding="UTF-8" standalone="no"?>
<!-- Created with Inkscape (http://www.inkscape.org/) -->

<svg
   xmlns:dc="http://purl.org/dc/elements/1.1/"
   xmlns:cc="http://creativecommons.org/ns#"
   xmlns:rdf="http://www.w3.org/1999/02/22-rdf-syntax-ns#"
   xmlns:svg="http://www.w3.org/2000/svg"
   xmlns="http://www.w3.org/2000/svg"
   xmlns:sodipodi="http://sodipodi.sourceforge.net/DTD/sodipodi-0.dtd"
   xmlns:inkscape="http://www.inkscape.org/namespaces/inkscape"
   width="512"
   height="512"
   viewBox="0 0 512 512"
   version="1.1"
   id="svg8"
   inkscape:version="0.92.4 (5da689c313, 2019-01-14)"
   sodipodi:docname="圖畫.svg">
  <defs
     id="defs2" />
  <sodipodi:namedview
     id="base"
     pagecolor="#ffffff"
     bordercolor="#666666"
     borderopacity="1.0"
     inkscape:pageopacity="0.0"
     inkscape:pageshadow="2"
     inkscape:zoom="0.98994949"
     inkscape:cx="-43.607265"
     inkscape:cy="233.35341"
     inkscape:document-units="px"
     inkscape:current-layer="layer1"
     showgrid="false"
     units="px"
     inkscape:window-width="1920"
     inkscape:window-height="1001"
     inkscape:window-x="-9"
     inkscape:window-y="-9"
     inkscape:window-maximized="1"
     showguides="true"
     inkscape:guide-bbox="true">
    <inkscape:grid
       type="xygrid"
       id="grid4529" />
    <sodipodi:guide
       position="530,-30.714286"
       orientation="0,1"
       id="guide4694"
       inkscape:locked="false" />
  </sodipodi:namedview>
  <metadata
     id="metadata5">
    <rdf:RDF>
      <cc:Work
         rdf:about="">
        <dc:format>image/svg+xml</dc:format>
        <dc:type
           rdf:resource="http://purl.org/dc/dcmitype/StillImage" />
        <dc:title></dc:title>
      </cc:Work>
    </rdf:RDF>
  </metadata>
  <g
     inkscape:label="圖層 1"
     inkscape:groupmode="layer"
     id="layer1"
     transform="translate(0,-161.53332)">
    <path
       style="fill:#000000;fill-opacity:1;stroke:#000000;stroke-width:1px;stroke-linecap:butt;stroke-linejoin:miter;stroke-opacity:1"
       d="M 136.42857,193.53332 C 136.42857,193.53332 146.42857,216.39046 151.42857,221.39046 156.42857,226.39046 164.28571,284.24761 154.28571,289.24761 144.28571,294.24761 78.571429,306.39046 78.571429,306.39046 78.571429,306.39046 88.571429,334.24761 100.71429,332.10475 112.85714,329.96189 147.14286,309.96189 150,316.39046 152.85714,322.81903 127.85714,498.53332 118.57143,500.67618 109.28571,502.81903 92.857143,495.67618 92.857143,495.67618 92.857143,495.67618 120,542.10475 123.57143,537.81903 127.14286,533.53332 141.42857,462.81903 147.14286,425.67618 152.85714,388.53332 155,377.81903 155,377.81903 L 184.28571,411.39046 C 184.28571,411.39046 200,416.39046 204.28571,413.53332 208.57143,410.67618 172.14286,372.10475 155.71429,369.96189 139.28571,367.81903 158.57143,367.81903 158.57143,367.81903 L 165,312.10475 199.28571,304.96189 C 199.28571,304.96189 182.85714,289.24761 172.85714,286.39046 162.85714,283.53332 185,244.24761 185,244.24761 185,244.24761 203.57143,214.2476 136.42857,193.53332 Z"
       id="path4709"
       inkscape:connector-curvature="0" />
    <path
       style="fill:#000000;fill-opacity:1;stroke:#000000;stroke-width:1px;stroke-linecap:butt;stroke-linejoin:miter;stroke-opacity:1"
       d="M 158.57143,367.81903 V 367.81903 L 159.09903,370.48756"
       id="path4711"
       inkscape:connector-curvature="0" />
    <path
       style="fill:#000000;fill-opacity:1;stroke:#000000;stroke-width:1px;stroke-linecap:butt;stroke-linejoin:miter;stroke-opacity:1"
       d="M 133.84521,348.76928 C 133.84521,348.76928 60.104076,449.27945 47.982246,440.69316 35.860415,432.10686 42.931483,464.43174 42.931483,464.43174 L 54.548237,467.4622 125.76399,390.69061 C 125.76399,390.69061 142.93659,350.28451 133.84521,348.76928 Z"
       id="path4713"
       inkscape:connector-curvature="0" />
    <path
       style="fill:#000000;fill-opacity:1;stroke:#000000;stroke-width:1px;stroke-linecap:butt;stroke-linejoin:miter;stroke-opacity:1"
       d="M 219.70818,288.41267 C 218.94448,292.72286 217.65701,297.67764 219.70818,301.54464 221.18515,304.32913 224.51165,305.96311 227.53686,306.84795 230.60811,307.74625 234.00607,307.27358 237.13331,306.59541 242.40483,305.45224 247.09407,302.45041 252.03306,300.28195 258.55239,297.41964 264.46715,292.68226 271.4785,291.44312 273.64013,291.06109 276.97775,290.02969 278.04449,291.9482 281.59402,298.33197 271.95174,305.28778 267.94296,311.39363 263.47657,318.19647 258.35096,324.63851 252.53814,330.33399 248.72537,334.0698 243.99902,336.75028 239.91123,340.18298 237.21834,342.44433 234.66305,344.86525 232.08255,347.25405 228.76166,350.32825 222.23356,356.59796 222.23356,356.59796 214.12741,363.29647 242.35953,350.36729 252.03306,346.24389 256.466,344.35432 260.77781,342.15289 264.91251,339.6779 270.10189,336.57159 275.14842,333.17448 279.81226,329.32384 283.5305,326.25392 286.92145,322.7889 290.16632,319.22232 292.42236,316.74261 296.47977,311.39363 296.47977,311.39363 299.41116,308.23904 294.64497,302.74082 295.46962,298.51419 295.86612,296.48197 296.71176,294.34705 298.24754,292.95835 301.58727,289.93846 306.47609,289.12343 310.87445,288.16012 318.12751,286.57158 325.67542,286.84135 333.0978,286.64489 338.65233,286.49787 344.94941,289.66897 349.76532,286.89743 353.19521,284.92354 355.17237,280.48029 355.5737,276.54337 355.77079,274.60995 355.316,271.80456 353.80593,270.98753 342.10299,264.65557 331.80806,256.77254 321.22851,258.8657 310.4229,261.00359 296.17562,265.39386 283.60033,268.46215 274.95132,270.57245 266.35561,272.97272 257.5889,274.52306 247.9858,276.22131 238.28123,277.46827 228.54701,278.0586 226.86651,278.16051 224.87617,277.09408 223.49625,278.05859 220.48405,280.16403 220.34936,284.79394 219.70818,288.41267 Z"
       id="path4717"
       inkscape:connector-curvature="0"
       sodipodi:nodetypes="aaaaaaaaaaasaaaasaaaaaassaaaaa" />
    <path
       style="fill:#000000;fill-opacity:1;stroke:#000000;stroke-width:1px;stroke-linecap:butt;stroke-linejoin:miter;stroke-opacity:1"
       d="M 209.28571,382.81903 225,386.39046 237.14286,382.10475 260.71429,375.67618 C 260.71429,375.67618 262.85714,372.10475 265.71429,382.81903 268.57143,393.53332 276.42857,394.96189 276.42857,399.24761 276.42857,403.53332 270,419.96189 268.57143,423.53332 267.14286,427.10475 266.42857,434.24761 266.42857,434.24761 266.42857,434.24761 276.42857,432.81903 276.42857,437.81903 276.42857,442.81903 274.28571,449.96189 274.28571,449.96189 L 249.28571,452.10475 221.42857,457.81903 213.57143,467.81903 200.71429,465.67618 197.14286,443.53332 V 421.39046 L 184.28571,411.39046 164.28571,389.24761 159.09903,370.48756 177.85714,379.24761 195,397.10475 210,412.81903 C 210,412.81903 220.71429,428.53332 220.71429,431.39046 220.71429,434.24761 228.57143,441.39046 228.57143,441.39046 L 242.85714,437.10475 253.57143,404.96189 246.42857,401.39046 230.71429,407.81903 220,407.10475 C 220,407.10475 199.28571,385.67618 209.28571,382.81903 Z"
       id="path4719"
       inkscape:connector-curvature="0" />
    <path
       style="fill:#000000;fill-opacity:1;stroke:#000000;stroke-width:1px;stroke-linecap:butt;stroke-linejoin:miter;stroke-opacity:1"
       d="M 270.71429,349.96189 C 271.59815,351.30482 282.06039,364.62072 287.85714,372.10475 L 303.57143,372.81903 C 303.57143,372.81903 305,382.81903 305,386.39046 305,389.96189 302.85714,421.39046 302.14286,427.10475 301.42857,432.81903 298.81653,441.42636 296.67368,449.2835 294.53082,457.14065 292.85714,479.24761 291.42857,484.24761 290,489.24761 282.85714,501.39046 282.85714,501.39046 L 256.84699,503.37487 240.71429,499.24761 C 240.71429,499.24761 263.03046,533.95174 264.45903,536.80888 265.8876,539.66603 278.41298,546.0946 278.41298,546.0946 L 285.95939,530.38031 293.57143,518.53332 302.14286,507.81903 307.85714,482.10475 309.28571,447.81903 317.14286,423.53332 323.57143,390.67618 327.14286,380.67618 316.42857,364.96189 302.85714,354.24761 C 302.85714,354.24761 278.57143,352.81903 275,352.81903 271.42857,352.81903 270.71429,349.96189 270.71429,349.96189 Z"
       id="path4721"
       inkscape:connector-curvature="0"
       sodipodi:nodetypes="cccscsscccccccccccccccsc" />
    <path
       style="fill:#000000;fill-opacity:1;stroke:#000000;stroke-width:1px;stroke-linecap:butt;stroke-linejoin:miter;stroke-opacity:1"
       d="M 335.71429,360.67618 C 343.03877,359.16753 339.17015,375.22938 341.07143,382.46189 341.8572,385.45099 341.10894,389.52276 343.57143,391.39046 344.70965,392.25375 346.46068,391.69163 347.85714,391.39046 353.22162,390.23351 357.79193,386.71659 362.85714,384.60475 366.85683,382.93716 370.90087,381.36741 375,379.96189 380.41474,378.10526 385.87402,376.34517 391.42857,374.96189 396.25418,373.76014 401.18955,373.05238 406.07143,372.10475 423.33008,368.75463 440.35625,363.77903 457.85714,362.10475 460.34578,361.86667 463.37467,363.62784 465.35714,362.10475 468.28821,359.85287 469.66617,354.7896 468.21429,351.39046 467.14693,348.89155 463.55732,348.55922 461.07143,347.46189 456.00863,345.22706 450.32022,344.55307 445.35714,342.10475 443.04749,340.96538 441.39346,338.56534 438.92857,337.81903 437.33342,337.33606 435.54284,337.40439 433.92857,337.81903 431.29669,338.49505 429.19187,340.48499 426.78571,341.74761 423.48568,343.47928 420.29422,345.49094 416.78571,346.74761 410.23337,349.09451 403.29029,350.22518 396.42857,351.39046 388.04277,352.81457 379.33793,352.24394 371.07143,354.24761 362.28299,356.37779 354.73201,363.21588 345.71429,363.89046 342.92005,364.09948 340.28026,361.75598 337.5,362.10475 336.97174,362.17102 336.54586,363.06062 336.07143,362.81903 335.42614,362.49043 335.00504,360.82227 335.71429,360.67618 Z"
       id="path4723"
       inkscape:connector-curvature="0"
       sodipodi:nodetypes="aaaaaaaaaaaaaaaaaaaaaaa" />
    <path
       style="fill:#000000;fill-opacity:1;stroke:#000000;stroke-width:1px;stroke-linecap:butt;stroke-linejoin:miter;stroke-opacity:1"
       d="M 388.90873,387.15507 370.72598,428.57133 342.94679,413.92412 337.89603,411.39873 363.14984,445.74392 307.85714,482.10475 C 307.85714,482.10475 349.51278,486.15002 361.12954,474.02819 372.74629,461.90636 376.28182,461.40129 376.28182,461.40129 L 414.16254,509.38353 C 414.16254,509.38353 436.3859,514.43429 428.30468,492.21094 420.22346,469.98758 398.0001,437.6627 393.45442,438.67285 388.90873,439.68301 405.07117,419.98503 405.07117,419.98503 405.07117,419.98503 400.52548,382.60939 388.90873,387.15507 Z"
       id="path4725"
       inkscape:connector-curvature="0" />
    <path
       style="fill:#000000;fill-opacity:1;stroke:#000000;stroke-width:1px;stroke-linecap:butt;stroke-linejoin:miter;stroke-opacity:1"
       d="M 55.053314,569.48761 C 55.053314,569.48761 70.965563,596.98989 84.852814,599.79218 101.12754,603.07624 114.76191,584.837 130.81475,580.59929 141.63702,577.74237 153.1347,578.54648 164.14979,576.55868 178.29504,574.00601 191.84675,568.52397 206.07112,566.45715 225.25724,563.66938 244.78466,564.24688 264.15489,563.42669 284.85541,562.55017 305.57105,560.73579 326.27927,561.40639 340.14297,561.85535 353.86556,564.3814 367.69553,565.447 376.60641,566.13359 385.70504,565.18856 394.46457,566.96223 401.82372,568.45235 408.49145,572.36253 415.67777,574.53837 420.99278,576.14762 428.98122,583.33978 431.84021,578.57898 436.62704,570.60794 420.16155,563.9801 413.15239,557.87085 405.47843,551.18216 397.7012,543.44357 387.89858,540.69826 365.65903,534.46988 341.75741,542.85898 318.70312,544.23379 311.29131,544.67579 303.86387,544.97093 296.47977,545.74902 285.82448,546.87181 275.33073,549.32991 264.65997,550.29471 247.2089,551.87255 229.60002,550.93706 212.13203,552.31501 196.58102,553.54174 181.16692,556.13017 165.66502,557.87085 128.82321,562.00775 55.053314,569.48761 55.053314,569.48761 Z"
       id="path4727"
       inkscape:connector-curvature="0"
       sodipodi:nodetypes="caaaaaaaaaaaaaaaaac" />
  </g>
</svg>
