<?xml version="1.0" encoding="UTF-8" standalone="no"?>
<!-- Created with Inkscape (http://www.inkscape.org/) -->

<svg
   xmlns:dc="http://purl.org/dc/elements/1.1/"
   xmlns:cc="http://creativecommons.org/ns#"
   xmlns:rdf="http://www.w3.org/1999/02/22-rdf-syntax-ns#"
   xmlns:svg="http://www.w3.org/2000/svg"
   xmlns="http://www.w3.org/2000/svg"
   xmlns:sodipodi="http://sodipodi.sourceforge.net/DTD/sodipodi-0.dtd"
   xmlns:inkscape="http://www.inkscape.org/namespaces/inkscape"
   width="512"
   height="512"
   viewBox="0 0 512 512"
   version="1.1"
   id="svg8"
   inkscape:version="0.92.4 (5da689c313, 2019-01-14)"
   sodipodi:docname="圖畫.svg">
  <defs
     id="defs2" />
  <sodipodi:namedview
     id="base"
     pagecolor="#ffffff"
     bordercolor="#666666"
     borderopacity="1.0"
     inkscape:pageopacity="0.0"
     inkscape:pageshadow="2"
     inkscape:zoom="1.4142136"
     inkscape:cx="111.07464"
     inkscape:cy="309.7037"
     inkscape:document-units="px"
     inkscape:current-layer="layer1"
     showgrid="false"
     units="px"
     inkscape:window-width="1920"
     inkscape:window-height="1001"
     inkscape:window-x="-9"
     inkscape:window-y="-9"
     inkscape:window-maximized="1">
    <inkscape:grid
       type="xygrid"
       id="grid815" />
  </sodipodi:namedview>
  <metadata
     id="metadata5">
    <rdf:RDF>
      <cc:Work
         rdf:about="">
        <dc:format>image/svg+xml</dc:format>
        <dc:type
           rdf:resource="http://purl.org/dc/dcmitype/StillImage" />
        <dc:title></dc:title>
      </cc:Work>
    </rdf:RDF>
  </metadata>
  <g
     inkscape:label="圖層 1"
     inkscape:groupmode="layer"
     id="layer1"
     transform="translate(0,-161.53332)">
    <path
       style="fill:#000000;fill-opacity:1;stroke:#000000;stroke-width:1px;stroke-linecap:butt;stroke-linejoin:miter;stroke-opacity:1"
       d="M 114.5513,212.4997 C 114.5513,212.4997 128.69343,241.49108 140.71425,252.09768 152.73506,262.70428 145.664,310.08044 145.664,310.08044 L 64.346717,336.24339 36.769552,335.53628 C 36.769552,335.53628 62.932503,373.72005 78.488852,367.35608 94.045202,360.99212 123.74369,347.5571 123.74369,347.5571 L 144.24978,339.07181 150.61374,341.90024 98.994949,413.31803 62.932503,461.40129 23.334524,496.04952 1.4142136,499.58505 C 1.4142136,499.58505 26.162951,523.62668 42.426407,513.72719 58.689863,503.82769 111.72287,438.77387 111.72287,438.77387 L 147.07821,385.74086 131.52186,473.4221 124.45079,557.56781 118.08683,585.85208 C 118.08683,585.85208 137.88582,608.4795 136.47161,613.42924 135.05739,618.37899 141.42136,544.13278 141.42136,544.13278 L 144.95689,488.27134 151.32085,430.9957 C 151.32085,430.9957 146.3711,397.76168 164.04877,421.80331 181.72644,445.84494 190.91883,447.96626 190.91883,447.96626 190.91883,447.96626 207.18229,429.58148 194.45436,418.26777 181.72644,406.95406 157.68481,392.10482 157.68481,392.10482 157.68481,392.10482 159.09903,329.87943 161.92745,328.46521 164.75588,327.051 207.88939,323.51546 207.88939,323.51546 207.88939,323.51546 213.54625,301.59515 192.33304,303.71647 171.11984,305.8378 164.75588,305.8378 164.75588,305.8378 164.75588,305.8378 167.58431,266.23982 176.06959,264.8256 184.55487,263.41139 156.9777,230.88448 156.9777,230.88448 156.9777,230.88448 115.96551,206.13574 114.5513,212.4997 Z"
       id="path999"
       inkscape:connector-curvature="0" />
    <path
       style="fill:#000000;fill-opacity:1;stroke:#000000;stroke-width:1px;stroke-linecap:butt;stroke-linejoin:miter;stroke-opacity:1"
       d="M 295.57063,223.1063 C 295.57063,223.1063 301.22749,241.49108 310.41988,242.90529 319.61226,244.31951 375.4737,259.16875 375.4737,259.16875 L 301.22749,274.01799 247.48737,289.57434 236.88077,298.05962 271.529,315.73729 294.86353,297.35251 359.91735,277.55352 413.65747,269.77535 463.15494,268.36114 503.46003,275.4322 510.53109,272.60378 C 510.53109,272.60378 514.06663,247.85504 484.36814,249.97636 454.66966,252.09768 387.49451,257.75453 387.49451,257.75453 L 366.98842,231.59158 340.11836,221.69209 C 340.11836,221.69209 300.52038,215.32813 295.57063,223.1063 Z"
       id="path1001"
       inkscape:connector-curvature="0" />
    <path
       style="fill:#000000;fill-opacity:1;stroke:#000000;stroke-width:1px;stroke-linecap:butt;stroke-linejoin:miter;stroke-opacity:1"
       d="M 296.27774,327.75811 334.46151,342.60735 383.95898,329.17232 H 395.9798 L 401.63665,334.82917 394.56558,398.46878 V 448.67336 467.05814 H 356.38182 C 356.38182,467.05814 298.39906,483.3216 302.6417,483.3216 306.88434,483.3216 306.17724,443.01651 306.17724,443.01651 L 324.56201,445.13783 364.8671,434.53123 C 364.8671,434.53123 381.13055,410.4896 347.18943,421.0962 313.2483,431.7028 309.00566,433.82412 309.00566,433.82412 309.00566,433.82412 299.10617,381.49822 306.17724,377.25558 313.2483,373.01294 305.47013,358.1637 305.47013,358.1637 305.47013,358.1637 273.65032,323.51546 272.94322,332.70785 272.23611,341.90024 285.67114,369.47741 285.67114,369.47741 L 287.08535,431.7028 C 287.08535,431.7028 281.4285,476.25053 288.49957,484.0287 295.57063,491.80688 243.24473,483.3216 243.24473,487.56424 243.24473,491.80688 279.30718,505.24191 279.30718,505.24191 L 292.0351,514.43429 302.6417,501.70637 392.44426,482.61449 C 392.44426,482.61449 402.34376,520.79826 407.2935,520.79826 412.24325,520.79826 327.39044,528.57643 327.39044,528.57643 L 247.48737,541.30435 205.06097,553.32517 H 177.4838 L 207.18229,583.73076 257.38687,559.68913 300.52038,545.54699 356.38182,539.18303 401.63665,534.94039 434.87067,534.23328 495.68185,553.32517 C 495.68185,553.32517 489.31789,508.77744 462.44783,511.60587 435.57778,514.43429 425.67828,515.84851 425.67828,515.84851 L 414.36457,452.2089 422.14275,359.57791 C 422.14275,359.57791 439.11331,316.44439 405.87929,301.59515 386.71698,293.03327 390.32294,295.23119 390.32294,295.23119 L 383.25187,307.25201 332.34019,318.56572 304.76302,321.39414 C 304.76302,321.39414 285.67114,326.34389 296.27774,327.75811 Z"
       id="path1003"
       inkscape:connector-curvature="0"
       sodipodi:nodetypes="cccccccccscccscscccccsccccscccccccccccscccsccccc" />
    <path
       style="fill:#000000;fill-opacity:1;stroke:#000000;stroke-width:1px;stroke-linecap:butt;stroke-linejoin:miter;stroke-opacity:1"
       d="M 316.78384,385.03375 339.41125,394.93325 376.88791,377.96269 C 376.88791,377.96269 374.05949,365.23476 346.48232,370.18451 318.90516,375.13426 316.07673,380.79111 316.07673,380.79111 Z"
       id="path1005"
       inkscape:connector-curvature="0" />
  </g>
</svg>
