<?xml version="1.0" encoding="UTF-8" standalone="no"?>
<!-- Created with Inkscape (http://www.inkscape.org/) -->

<svg
   xmlns:dc="http://purl.org/dc/elements/1.1/"
   xmlns:cc="http://creativecommons.org/ns#"
   xmlns:rdf="http://www.w3.org/1999/02/22-rdf-syntax-ns#"
   xmlns:svg="http://www.w3.org/2000/svg"
   xmlns="http://www.w3.org/2000/svg"
   xmlns:sodipodi="http://sodipodi.sourceforge.net/DTD/sodipodi-0.dtd"
   xmlns:inkscape="http://www.inkscape.org/namespaces/inkscape"
   width="512"
   height="512"
   viewBox="0 0 512 512"
   version="1.1"
   id="svg8"
   inkscape:version="0.92.4 (5da689c313, 2019-01-14)"
   sodipodi:docname="圖畫.svg">
  <defs
     id="defs2" />
  <sodipodi:namedview
     id="base"
     pagecolor="#ffffff"
     bordercolor="#666666"
     borderopacity="1.0"
     inkscape:pageopacity="0.0"
     inkscape:pageshadow="2"
     inkscape:zoom="1.4"
     inkscape:cx="294.90404"
     inkscape:cy="272.16815"
     inkscape:document-units="px"
     inkscape:current-layer="layer1"
     showgrid="false"
     units="px"
     inkscape:window-width="1920"
     inkscape:window-height="1001"
     inkscape:window-x="-9"
     inkscape:window-y="-9"
     inkscape:window-maximized="1">
    <inkscape:grid
       type="xygrid"
       id="grid4529" />
  </sodipodi:namedview>
  <metadata
     id="metadata5">
    <rdf:RDF>
      <cc:Work
         rdf:about="">
        <dc:format>image/svg+xml</dc:format>
        <dc:type
           rdf:resource="http://purl.org/dc/dcmitype/StillImage" />
        <dc:title></dc:title>
      </cc:Work>
    </rdf:RDF>
  </metadata>
  <g
     inkscape:label="圖層 1"
     inkscape:groupmode="layer"
     id="layer1"
     transform="translate(0,-161.53332)">
    <path
       style="fill:#000000;fill-opacity:1;stroke:#000000;stroke-width:1px;stroke-linecap:butt;stroke-linejoin:miter;stroke-opacity:1"
       d="M 110,283.53332 C 165,283.53332 207.43302,270.48898 255,258.53332 260.11148,257.24858 264.77617,252.83375 270,253.53332 275.95608,254.33095 281.02306,259.02831 285,263.53332 287.46639,266.32721 291.63737,270.1855 290,273.53332 286.26623,281.16753 273.34502,276.92622 265,278.53332 220.06067,287.18784 175,293.53332 130,303.53332 120.79642,305.57856 100.57191,283.53332 110,283.53332 Z"
       id="path4531"
       inkscape:connector-curvature="0"
       sodipodi:nodetypes="saaaaass" />
    <path
       style="fill:#000000;fill-opacity:1;stroke:#000000;stroke-width:1px;stroke-linecap:butt;stroke-linejoin:miter;stroke-opacity:1"
       d="M 165,298.53332 C 160.25659,300.11446 161.58683,309.87951 165,313.53332 168.584,317.37 177.20328,310.70116 180.71429,314.60475 184.93666,319.29925 182.4183,327.70077 180,333.53332 167.80448,362.94689 140,378.53332 115,403.53332 111.27322,407.2601 115.01481,416.82286 120,418.53332 125.68399,420.48354 130.35279,412.34312 135,408.53332 151.40506,395.08438 168.23303,381.18377 180,363.53332 190,348.53332 200,343.53332 210,328.53332 215.547,320.21282 180,293.53332 165,298.53332 Z"
       id="path4537"
       inkscape:connector-curvature="0"
       sodipodi:nodetypes="saaasaasss" />
    <path
       style="fill:#000000;fill-opacity:1;stroke:#000000;stroke-width:1px;stroke-linecap:butt;stroke-linejoin:miter;stroke-opacity:1"
       d="M 140,408.53332 150,433.53332 160,443.53332 170,448.53332 180,438.53332 C 180,438.53332 180,423.53332 165,418.53332 150,413.53332 145,403.53332 145,403.53332 Z"
       id="path4539"
       inkscape:connector-curvature="0" />
    <path
       style="fill:#000000;fill-opacity:1;stroke:#000000;stroke-width:1px;stroke-linecap:butt;stroke-linejoin:miter;stroke-opacity:1"
       d="M 180,368.53332 190,373.53332 H 205 C 210,373.53332 220,378.53332 215,383.53332 210,388.53332 210,393.53332 210,393.53332 210,393.53332 200,403.53332 200,408.53332 200,413.53332 180,438.53332 180,438.53332 180,438.53332 145,488.53332 140,493.53332 135,498.53332 115,523.53332 115,523.53332 L 75,563.53332 55,583.53332 C 55,583.53332 100,563.53332 125,538.53332 150,513.53332 180,458.53332 180,458.53332 L 215,413.53332 230,393.53332 260,373.53332 C 261.30031,381.17363 250,343.53333 235,343.53332 214.38447,343.5333 230,353.53332 225,358.53332 217.09431,366.43901 195,348.53332 195,348.53332 L 185,353.53332 Z"
       id="path4541"
       inkscape:connector-curvature="0"
       sodipodi:nodetypes="ccsscscscccsccccssccc" />
    <path
       style="fill:#000000;fill-opacity:1;stroke:#000000;stroke-width:1px;stroke-linecap:butt;stroke-linejoin:miter;stroke-opacity:1"
       d="M 342.14286,235.67618 C 342.14286,235.67618 359.51822,248.72032 361.81109,274.96189 363.92549,299.16095 312.85714,359.24761 312.85714,359.24761 312.85714,359.24761 316.68282,368.71979 335.87273,343.6992 351.37134,323.49148 382.14286,294.24761 384.28571,289.96189 386.42857,285.67618 395.71429,257.81903 368.57143,244.96189 341.42857,232.10475 342.14286,235.67618 342.14286,235.67618 Z"
       id="path4545"
       inkscape:connector-curvature="0"
       sodipodi:nodetypes="cscscsc" />
    <path
       style="fill:#000000;fill-opacity:1;stroke:#000000;stroke-width:1px;stroke-linecap:butt;stroke-linejoin:miter;stroke-opacity:1"
       d="M 287.84971,354.70935 C 287.84971,354.70935 283.5929,405.93179 305.46175,405.97204 321.11908,406.00086 314.73488,397.06172 314.73488,397.06172 L 349.68422,385.51749 C 380.54807,373.75983 434.36559,350.03196 435.88082,346.24389 437.39605,342.45582 452.54834,357.86065 454.31611,357.35557 456.08387,356.85049 467.19555,363.66902 469.46839,361.90126 471.74124,360.13349 476.28692,334.87968 462.14479,326.29338 448.00265,317.70708 419.71838,306.09033 419.71838,306.09033 419.71838,306.09033 415.42523,311.14109 424.01153,324.77815 432.59783,338.41521 431.0826,336.64744 431.0826,336.64744 L 316.68282,368.71979 Z"
       id="path4549"
       inkscape:connector-curvature="0"
       sodipodi:nodetypes="csccscsscsccc" />
    <path
       style="fill:#000000;fill-opacity:1;stroke:#000000;stroke-width:1px;stroke-linecap:butt;stroke-linejoin:miter;stroke-opacity:1"
       d="M 290,447.81903 C 282.54561,453.03425 281.46201,467.85595 287.14286,474.96189 289.68776,478.1452 295.81112,474.2604 299.28571,476.39046 308.06832,481.77453 312.63093,492.52872 316.42857,502.10475 323.81663,520.73431 320.91218,542.12356 326.42857,561.39046 327.63345,565.5987 327.05931,573.79895 331.42857,573.53332 338.57804,573.09867 336.9958,559.98019 337.14286,552.81903 337.70492,525.44903 332.19842,496.5622 318.57143,472.81903 312.70269,462.59357 303.19864,454.1951 292.85714,448.53332 291.99605,448.06189 290.80438,447.25627 290,447.81903 Z"
       id="path4551"
       inkscape:connector-curvature="0"
       sodipodi:nodetypes="aaaaaaaaaa" />
    <path
       style="fill:#000000;fill-opacity:1;stroke:#000000;stroke-width:1px;stroke-linecap:butt;stroke-linejoin:miter;stroke-opacity:1"
       d="M 325.71429,472.81903 C 340.95238,468.29522 356.19048,463.77142 371.42857,459.24761 390.23809,457.58094 409.04762,455.91428 427.85714,454.24761 429.7619,448.77142 431.66667,443.29522 433.57143,437.81903 391.19048,444.72379 348.80952,451.62856 306.42857,458.53332 312.85714,463.29522 319.28572,468.05713 325.71429,472.81903 Z"
       id="path4553"
       inkscape:connector-curvature="0"
       sodipodi:nodetypes="cccccc" />
    <path
       style="fill:#000000;fill-opacity:1;stroke:#000000;stroke-width:1px;stroke-linecap:butt;stroke-linejoin:miter;stroke-opacity:1"
       d="M 335,539.24761 C 358.99321,532.25587 386.56357,531.41219 412.85714,526.39046 421.56068,524.7282 430.62834,527.35959 439.28571,529.24761 443.69951,530.21018 450.57552,529.29639 452.14286,533.53332 453.10621,536.13749 450.59024,540.18635 447.85714,540.67618 409.17661,547.60863 378.6726,551.4897 340.71429,554.96189 335.1638,555.46961 329.64891,540.80695 335,539.24761 Z"
       id="path4555"
       inkscape:connector-curvature="0"
       sodipodi:nodetypes="ssaasss" />
    <path
       style="fill:#000000;fill-opacity:1;stroke:#000000;stroke-width:1px;stroke-linecap:butt;stroke-linejoin:miter;stroke-opacity:1"
       d="M 433.57143,437.81903 443.57143,423.53332 C 443.57143,423.53332 452.14286,412.10475 460.71429,426.39046 469.28571,440.67618 475,450.67617 475,450.67617 L 439.28571,529.24761 412.85714,526.39046 Z"
       id="path4557"
       inkscape:connector-curvature="0"
       sodipodi:nodetypes="ccscccc" />
  </g>
</svg>
