<?xml version="1.0" encoding="UTF-8" standalone="no"?>
<!-- Created with Inkscape (http://www.inkscape.org/) -->

<svg
   xmlns:dc="http://purl.org/dc/elements/1.1/"
   xmlns:cc="http://creativecommons.org/ns#"
   xmlns:rdf="http://www.w3.org/1999/02/22-rdf-syntax-ns#"
   xmlns:svg="http://www.w3.org/2000/svg"
   xmlns="http://www.w3.org/2000/svg"
   xmlns:sodipodi="http://sodipodi.sourceforge.net/DTD/sodipodi-0.dtd"
   xmlns:inkscape="http://www.inkscape.org/namespaces/inkscape"
   width="512"
   height="512"
   viewBox="0 0 512 512"
   version="1.1"
   id="svg8"
   inkscape:version="0.92.4 (5da689c313, 2019-01-14)"
   sodipodi:docname="圖畫.svg">
  <defs
     id="defs2" />
  <sodipodi:namedview
     id="base"
     pagecolor="#ffffff"
     bordercolor="#666666"
     borderopacity="1.0"
     inkscape:pageopacity="0.0"
     inkscape:pageshadow="2"
     inkscape:zoom="1.4142136"
     inkscape:cx="135.84147"
     inkscape:cy="261.62426"
     inkscape:document-units="px"
     inkscape:current-layer="layer1"
     showgrid="true"
     units="px"
     inkscape:window-width="1920"
     inkscape:window-height="1001"
     inkscape:window-x="-9"
     inkscape:window-y="-9"
     inkscape:window-maximized="1">
    <inkscape:grid
       type="xygrid"
       id="grid815" />
  </sodipodi:namedview>
  <metadata
     id="metadata5">
    <rdf:RDF>
      <cc:Work
         rdf:about="">
        <dc:format>image/svg+xml</dc:format>
        <dc:type
           rdf:resource="http://purl.org/dc/dcmitype/StillImage" />
        <dc:title></dc:title>
      </cc:Work>
    </rdf:RDF>
  </metadata>
  <g
     inkscape:label="圖層 1"
     inkscape:groupmode="layer"
     id="layer1"
     transform="translate(0,-161.53332)">
    <path
       style="fill:#000000;fill-opacity:1;stroke:#000000;stroke-width:1px;stroke-linecap:butt;stroke-linejoin:miter;stroke-opacity:1"
       d="M 160,283.53332 V 303.53332 C 160,303.53332 130,343.53332 150,363.53332 L 160,373.53332 180,333.53332 170,283.53332 C 170,283.53332 170,273.53332 160,283.53332 Z"
       id="path861"
       inkscape:connector-curvature="0"
       sodipodi:nodetypes="ccscccc" />
    <path
       style="fill:#000000;fill-opacity:1;stroke:#000000;stroke-width:1px;stroke-linecap:butt;stroke-linejoin:miter;stroke-opacity:1"
       d="M 270,213.53332 260,203.53332 C 260,203.53332 270,183.53332 290,193.53332 L 310,203.53332 290,263.53332 280,333.53332 V 353.53332 L 370,273.53332 C 370,273.53332 370,243.53332 380,263.53332 L 390,283.53332 H 380 C 380,283.53332 294.14214,349.39118 280,363.53332 270,373.53332 220,403.53332 210,413.53332 200,423.53332 160,453.53332 160,453.53332 L 80,513.53332 10,533.53332 90,483.53332 190,413.53332 250,363.53332 H 260 L 240,323.53332 260,333.53332 Z"
       id="path863"
       inkscape:connector-curvature="0"
       sodipodi:nodetypes="ccscccccsccsscccccccccc" />
    <path
       style="fill:#000000;fill-opacity:1;stroke:#000000;stroke-width:1px;stroke-linecap:butt;stroke-linejoin:miter;stroke-opacity:1"
       d="M 370,303.53332 C 370,303.53332 370,343.53332 390,343.53332 410,343.53332 430,353.53332 430,353.53332 430,353.53332 455.35534,348.88866 420,313.53332 410,303.53332 390,323.53332 370,303.53332 Z"
       id="path865"
       inkscape:connector-curvature="0"
       sodipodi:nodetypes="cscsc" />
    <path
       style="fill:#000000;fill-opacity:1;stroke:#000000;stroke-width:1px;stroke-linecap:butt;stroke-linejoin:miter;stroke-opacity:1"
       d="M 190,393.53332 C 190,393.53332 200,423.53332 210,433.53332 220,443.53332 200,583.53332 200,583.53332 L 190,578.53332 C 190,578.53332 205,608.53332 220,603.53332 235,598.53332 326.701,579.07863 330.10051,588.48307 L 350,643.53332 C 350,643.53332 370,613.53332 370,583.53332 370,553.53332 380,443.53332 380,443.53332 L 390,413.53332 C 390,413.53332 360,373.53332 340,373.53332 320,373.53332 260,393.53332 260,393.53332 H 240 C 240,393.53332 270,433.53332 280,423.53332 290,413.53332 320,403.53332 320,403.53332 H 350 360 L 350,573.53332 C 350,573.53332 349.43052,574.09219 320,543.53332 290.19551,512.58615 348.57349,573.53332 320,573.53332 H 250 220 L 230,443.53332 220,423.53332 C 220,423.53332 200,393.53332 190,393.53332 Z"
       id="path869"
       inkscape:connector-curvature="0"
       sodipodi:nodetypes="csccsscsccsccsccccssccccc" />
    <path
       style="fill:#000000;fill-opacity:1;stroke:#000000;stroke-width:1px;stroke-linecap:butt;stroke-linejoin:miter;stroke-opacity:1"
       d="M 240,453.53332 C 240,453.53332 240,503.53332 260,493.53332 L 320,463.53332 V 453.53332 H 300 L 260,463.53332 Z"
       id="path871"
       inkscape:connector-curvature="0"
       sodipodi:nodetypes="csccccc" />
    <path
       style="fill:#000000;fill-opacity:1;stroke:#000000;stroke-width:1px;stroke-linecap:butt;stroke-linejoin:miter;stroke-opacity:1"
       d="M 240,513.53332 C 240,513.53332 240,543.53332 260,533.53332 280,523.53332 290,523.53332 290,523.53332 H 310 V 513.53332 L 290,503.53332 270,513.53332 C 270,513.53332 240,523.53332 240,513.53332 Z"
       id="path873"
       inkscape:connector-curvature="0"
       sodipodi:nodetypes="cscccccc" />
  </g>
</svg>
