<?xml version="1.0" encoding="UTF-8" standalone="no"?>
<!-- Created with Inkscape (http://www.inkscape.org/) -->

<svg
   xmlns:dc="http://purl.org/dc/elements/1.1/"
   xmlns:cc="http://creativecommons.org/ns#"
   xmlns:rdf="http://www.w3.org/1999/02/22-rdf-syntax-ns#"
   xmlns:svg="http://www.w3.org/2000/svg"
   xmlns="http://www.w3.org/2000/svg"
   xmlns:sodipodi="http://sodipodi.sourceforge.net/DTD/sodipodi-0.dtd"
   xmlns:inkscape="http://www.inkscape.org/namespaces/inkscape"
   width="512"
   height="512"
   viewBox="0 0 512 512"
   version="1.1"
   id="svg8"
   inkscape:version="0.92.4 (5da689c313, 2019-01-14)"
   sodipodi:docname="圖畫.svg">
  <defs
     id="defs2" />
  <sodipodi:namedview
     id="base"
     pagecolor="#ffffff"
     bordercolor="#666666"
     borderopacity="1.0"
     inkscape:pageopacity="0.0"
     inkscape:pageshadow="2"
     inkscape:zoom="1.4"
     inkscape:cx="176.36777"
     inkscape:cy="214.18263"
     inkscape:document-units="px"
     inkscape:current-layer="layer1"
     showgrid="false"
     units="px"
     inkscape:window-width="1920"
     inkscape:window-height="1001"
     inkscape:window-x="-9"
     inkscape:window-y="-9"
     inkscape:window-maximized="1">
    <inkscape:grid
       type="xygrid"
       id="grid815" />
  </sodipodi:namedview>
  <metadata
     id="metadata5">
    <rdf:RDF>
      <cc:Work
         rdf:about="">
        <dc:format>image/svg+xml</dc:format>
        <dc:type
           rdf:resource="http://purl.org/dc/dcmitype/StillImage" />
        <dc:title></dc:title>
      </cc:Work>
    </rdf:RDF>
  </metadata>
  <g
     inkscape:label="圖層 1"
     inkscape:groupmode="layer"
     id="layer1"
     transform="translate(0,-161.53332)">
    <path
       style="fill:#000000;fill-opacity:1;stroke:#000000;stroke-width:1px;stroke-linecap:butt;stroke-linejoin:miter;stroke-opacity:1"
       d="M 140,263.53332 C 140.93091,256.13812 152.74583,255.2458 160,253.53332 163.24416,252.76748 166.72015,254.12807 170,253.53332 176.00493,252.44442 181.10293,247.97891 187.14286,247.10475 190.45022,246.62607 193.90064,247.00921 197.14286,247.81903 201.693,248.95554 205.75865,251.53172 210,253.53332 213.8518,255.35108 220.97986,255.01213 221.42857,259.24761 221.91041,263.79581 214.58513,265.38286 210.71429,267.81903 204.67577,271.61947 198.08042,274.52405 191.42857,277.10475 184.47611,279.80207 177.41406,284.33582 170,283.53332 162.68868,282.74194 156.73949,277.0355 150.71429,272.81903 146.84219,270.10933 139.40974,268.22237 140,263.53332 Z"
       id="path828"
       inkscape:connector-curvature="0"
       sodipodi:nodetypes="aaaaaaaaaaaa" />
    <path
       style="fill:#000000;fill-opacity:1;stroke:#000000;stroke-width:1px;stroke-linecap:butt;stroke-linejoin:miter;stroke-opacity:1"
       d="M 40,383.53332 C 40,383.53332 50,413.53332 80,403.53332 110,393.53332 170,363.53332 170,363.53332 H 180 200 L 210,353.53332 H 200 L 180,343.53332 Z"
       id="path832"
       inkscape:connector-curvature="0" />
    <path
       style="fill:#000000;fill-opacity:1;stroke:#000000;stroke-width:1px;stroke-linecap:butt;stroke-linejoin:miter;stroke-opacity:1"
       d="M 205.06097,327.55607 188.39345,349.77943 177.78685,370.48756 162.63456,390.18553 139.90613,416.4495 C 139.90613,416.4495 61.619305,504.33277 39.395949,502.81754 17.172593,501.30231 59.599,510.39368 59.599,510.39368 59.599,510.39368 110.6117,476.0485 110.10663,477.56373 109.60155,479.07895 162.12948,410.89366 162.12948,410.89366 L 164.65486,417.96473 C 164.65486,417.96473 158.59395,538.17288 150.51273,539.18303 142.43151,540.19318 173.24116,594.74142 174.25131,543.22364 175.26147,491.70586 178.29192,436.65255 178.29192,436.65255 L 183.34269,407.8632 176.27162,392.20584 187.88837,369.98248 204.55589,342.20328 Z"
       id="path834"
       inkscape:connector-curvature="0" />
    <path
       style="fill:#000000;fill-opacity:1;stroke:#000000;stroke-width:1px;stroke-linecap:butt;stroke-linejoin:miter;stroke-opacity:1"
       d="M 183.34269,407.8632 193.94929,425.03579 205.06097,430.08656 213.64726,439.68301 C 213.64726,439.68301 246.47722,440.18808 227.28432,422.00534 208.09142,403.82259 213.64726,407.8632 213.64726,407.8632 L 194.45437,410.89366 Z"
       id="path838"
       inkscape:connector-curvature="0" />
    <path
       style="fill:#000000;fill-opacity:1;stroke:#000000;stroke-width:1px;stroke-linecap:butt;stroke-linejoin:miter;stroke-opacity:1"
       d="M 226.27417,347.25405 223.24371,360.89111 233.34524,380.08401 243.95184,383.61954 249.0026,401.29721 C 249.0026,401.29721 245.46707,494.73632 253.04321,496.75662 260.61936,498.77693 237.38585,496.75662 234.35539,501.30231 231.32493,505.848 217.68787,496.75662 217.68787,496.75662 217.68787,496.75662 233.34524,541.70841 250.51783,532.11196 267.69042,522.51551 314.15744,480.08911 314.15744,480.08911 L 328.80465,454.83529 329.81481,451.29976 276.7818,487.66526 C 276.7818,487.66526 269.59076,408.39848 273.24627,393.21599 278.20257,372.63086 266.1752,375.03324 226.27417,347.25405 Z"
       id="path840"
       inkscape:connector-curvature="0"
       sodipodi:nodetypes="cccccsscsccccsc" />
    <path
       style="fill:#000000;fill-opacity:1;stroke:#000000;stroke-width:1px;stroke-linecap:butt;stroke-linejoin:miter;stroke-opacity:1"
       d="M 312.64221,324.02054 C 312.64221,324.02054 292.43916,352.30481 316.68282,344.72867 340.92648,337.15252 353.04831,333.61699 353.04831,333.61699 L 417.69808,325.03069 423.25392,313.91901 411.13209,307.35302 C 411.13209,307.35302 351.02801,314.42409 312.64221,324.02054 Z"
       id="path842"
       inkscape:connector-curvature="0" />
    <path
       style="fill:#000000;fill-opacity:1;stroke:#000000;stroke-width:1px;stroke-linecap:butt;stroke-linejoin:miter;stroke-opacity:1"
       d="M 325.7742,353.82004 C 324.76404,356.34542 352.54324,397.2566 342.44171,400.79213 332.34019,404.32767 277.28687,416.4495 277.28687,416.4495 277.28687,416.4495 309.10668,447.25915 319.71328,439.17793 330.31988,431.09671 335.37065,428.06625 335.37065,428.06625 L 350.01786,423.01549 C 350.01786,423.01549 363.14984,456.8556 328.80465,517.96983 294.45946,579.08406 369.21076,486.15002 369.21076,486.15002 369.21076,486.15002 383.35289,420.49011 376.28182,416.95457 369.21076,413.41904 407.09148,410.89366 410.12193,410.38858 413.15239,409.88351 419.21331,399.2769 419.21331,399.2769 L 394.96965,389.17538 379.31228,392.20584 378.8072,379.07385 C 378.8072,379.07385 334.36049,351.79973 325.7742,353.82004 Z"
       id="path844"
       inkscape:connector-curvature="0"
       sodipodi:nodetypes="cccsccscscccccc" />
    <path
       style="fill:#000000;fill-opacity:1;stroke:#000000;stroke-width:1px;stroke-linecap:butt;stroke-linejoin:miter;stroke-opacity:1"
       d="M 431.84021,369.4774 428.30468,375.53832 C 428.30468,375.53832 455.5788,412.91396 454.56865,416.4495 453.55849,419.98503 473.76154,413.92412 473.76154,413.92412 473.76154,413.92412 478.81231,382.60939 431.84021,369.4774 Z"
       id="path846"
       inkscape:connector-curvature="0" />
    <path
       style="fill:#000000;fill-opacity:1;stroke:#000000;stroke-width:1px;stroke-linecap:butt;stroke-linejoin:miter;stroke-opacity:1"
       d="M 109.09647,584.13482 C 109.09647,584.13482 125.76399,612.92417 123.74369,613.93432 121.72338,614.94447 172.23101,596.25665 172.23101,596.25665 L 266.68027,577.06375 361.63461,568.47746 C 361.63461,568.47746 426.78945,571.50791 441.94174,584.13482 457.09403,596.76173 458.10418,550.29471 423.25392,546.75918 388.40365,543.22364 295.46962,557.87085 295.46962,557.87085 L 192.93914,574.03329 140.4112,585.14497 Z"
       id="path848"
       inkscape:connector-curvature="0" />
  </g>
</svg>
