<?xml version="1.0" encoding="UTF-8" standalone="no"?>
<!-- Created with Inkscape (http://www.inkscape.org/) -->

<svg
   xmlns:dc="http://purl.org/dc/elements/1.1/"
   xmlns:cc="http://creativecommons.org/ns#"
   xmlns:rdf="http://www.w3.org/1999/02/22-rdf-syntax-ns#"
   xmlns:svg="http://www.w3.org/2000/svg"
   xmlns="http://www.w3.org/2000/svg"
   xmlns:sodipodi="http://sodipodi.sourceforge.net/DTD/sodipodi-0.dtd"
   xmlns:inkscape="http://www.inkscape.org/namespaces/inkscape"
   width="512"
   height="512"
   viewBox="0 0 512 512"
   version="1.1"
   id="svg8"
   inkscape:version="0.92.4 (5da689c313, 2019-01-14)"
   sodipodi:docname="圖畫.svg">
  <defs
     id="defs2" />
  <sodipodi:namedview
     id="base"
     pagecolor="#ffffff"
     bordercolor="#666666"
     borderopacity="1.0"
     inkscape:pageopacity="0.0"
     inkscape:pageshadow="2"
     inkscape:zoom="1.4142136"
     inkscape:cx="290.08139"
     inkscape:cy="278.55025"
     inkscape:document-units="px"
     inkscape:current-layer="layer1"
     showgrid="false"
     units="px"
     inkscape:window-width="1920"
     inkscape:window-height="1001"
     inkscape:window-x="-9"
     inkscape:window-y="-9"
     inkscape:window-maximized="1">
    <inkscape:grid
       type="xygrid"
       id="grid815" />
  </sodipodi:namedview>
  <metadata
     id="metadata5">
    <rdf:RDF>
      <cc:Work
         rdf:about="">
        <dc:format>image/svg+xml</dc:format>
        <dc:type
           rdf:resource="http://purl.org/dc/dcmitype/StillImage" />
        <dc:title></dc:title>
      </cc:Work>
    </rdf:RDF>
  </metadata>
  <g
     inkscape:label="圖層 1"
     inkscape:groupmode="layer"
     id="layer1"
     transform="translate(0,-161.53332)">
    <path
       style="fill:#000000;fill-opacity:1;stroke:#000000;stroke-width:1px;stroke-linecap:butt;stroke-linejoin:miter;stroke-opacity:1"
       d="M 120,253.53332 V 273.53332 L 130,293.53332 150,303.53332 40,323.53332 C 40,323.53332 0,333.53332 0,323.53332 0,313.53332 0,363.53332 20,353.53332 40,343.53332 140,313.53332 150,313.53332 160,313.53332 180,313.53332 180,313.53332 H 190 L 170,303.53332 H 160 C 160,303.53332 150,253.53332 120,253.53332 Z"
       id="path919"
       inkscape:connector-curvature="0" />
    <path
       style="fill:#000000;fill-opacity:1;stroke:#000000;stroke-width:1px;stroke-linecap:butt;stroke-linejoin:miter;stroke-opacity:1"
       d="M 80,383.53332 90,403.53332 120,393.53332 H 140 L 150,383.53332 C 150,383.53332 150,373.53332 120,373.53332 90,373.53332 80,393.53332 80,383.53332 Z"
       id="path921"
       inkscape:connector-curvature="0" />
    <path
       style="fill:#000000;fill-opacity:1;stroke:#000000;stroke-width:1px;stroke-linecap:butt;stroke-linejoin:miter;stroke-opacity:1"
       d="M 60,443.53332 C 60,443.53332 50,473.53332 80,463.53332 110,453.53332 130,453.53332 130,453.53332 L 140,443.53332 120,433.53332 100,443.53332 Z"
       id="path923"
       inkscape:connector-curvature="0" />
    <path
       style="fill:#000000;fill-opacity:1;stroke:#000000;stroke-width:1px;stroke-linecap:butt;stroke-linejoin:miter;stroke-opacity:1"
       d="M 30,513.53332 C 30,513.53332 70,573.53332 60,573.53332 50,573.53332 70,593.53332 70,593.53332 L 80,573.53332 120,563.53332 H 140 C 140,563.53332 130,553.53332 130,553.53332 L 170,503.53332 155.56349,481.20028 142.12846,477.66474 130.10765,493.22109 67.175144,510.19165 89.095454,524.33379 124.45079,512.31297 129.40054,514.43429 124.45079,545.54699 74.953319,560.39624 67.175144,526.45511 C 67.175144,526.45511 38.07969,511.21813 30,513.53332 Z"
       id="path925"
       inkscape:connector-curvature="0" />
    <path
       style="fill:#000000;fill-opacity:1;stroke:#000000;stroke-width:1px;stroke-linecap:butt;stroke-linejoin:miter;stroke-opacity:1"
       d="M 329.51176,257.75453 C 329.51176,257.75453 355.67471,290.28145 358.50314,290.98855 361.33156,291.69566 369.81685,294.52409 369.81685,294.52409 369.81685,294.52409 376.18081,286.74591 379.71634,288.16013 383.25187,289.57434 399.51533,293.10987 399.51533,293.10987 399.51533,293.10987 377.59502,260.58296 363.45288,258.46164 349.31075,256.34032 329.51176,257.75453 329.51176,257.75453 Z"
       id="path927"
       inkscape:connector-curvature="0" />
    <path
       style="fill:#000000;fill-opacity:1;stroke:#000000;stroke-width:1px;stroke-linecap:butt;stroke-linejoin:miter;stroke-opacity:1"
       d="M 258.84527,234.19904 287.08535,338.36471 C 287.08535,338.36471 205.76807,364.52766 204.35386,359.57791 202.93965,354.62816 214.25335,387.15507 224.15285,382.20533 234.05234,377.25558 291.32799,359.57791 291.32799,359.57791 291.32799,359.57791 342.94679,469.88657 337.28993,478.37185 331.63308,486.85713 305.47013,510.89876 305.47013,510.89876 305.47013,510.89876 279.30718,494.63531 271.529,498.87795 263.75083,503.12059 299.10617,539.18303 299.10617,539.18303 L 306.88434,520.09115 346.48232,496.04952 C 346.48232,496.04952 445.47727,679.19017 463.86205,655.14854 482.24682,631.10691 485.07525,606.35818 485.07525,606.35818 L 457.49809,615.55056 409.41482,573.83126 358.50314,481.20028 395.27269,432.40991 399.51533,417.56067 381.83766,392.10482 353.55339,459.98707 C 353.55339,459.98707 311.83409,375.84137 314.66252,366.64898 317.49094,357.45659 307.59145,360.28502 307.59145,360.28502 L 357.08892,348.2642 C 357.08892,348.2642 354.2605,334.82917 338.70415,330.58653 323.1478,326.34389 307.59145,336.95049 307.59145,336.95049 307.59145,336.95049 270.15898,216.52137 258.84527,234.19904 Z"
       id="path929"
       inkscape:connector-curvature="0"
       sodipodi:nodetypes="ccsccscscccsccccccccsccscc" />
    <path
       style="fill:#000000;fill-opacity:1;stroke:#000000;stroke-width:1px;stroke-linecap:butt;stroke-linejoin:miter;stroke-opacity:1"
       d="M 197.28279,430.28859 259.50819,414.02513 265.16504,400.5901 H 277.18586 L 289.20667,412.61092 294.86353,419.68199 275.77164,463.52261 C 275.77164,463.52261 319.61226,466.35103 316.07673,470.59367 312.5412,474.83632 294.15642,474.83632 278.60007,476.95764 263.04372,479.07896 190.91883,500.99927 190.91883,500.99927 L 186.67619,504.5348 C 186.67619,504.5348 175.36248,482.61449 183.84776,481.90738 192.33304,481.20028 260.21529,469.17946 260.21529,469.17946 260.21529,469.17946 255.26555,446.55204 263.75083,433.82412 272.23611,421.0962 212.83914,451.50179 212.83914,451.50179 L 200.81833,452.2089 197.9899,439.48098 Z"
       id="path931"
       inkscape:connector-curvature="0" />
    <path
       style="fill:#000000;fill-opacity:1;stroke:#000000;stroke-width:1px;stroke-linecap:butt;stroke-linejoin:miter;stroke-opacity:1"
       d="M 214.96046,507.36323 196.57568,528.57643 190.21172,541.30435 194.45436,551.20385 221.32442,536.3546 226.27417,520.09115 Z"
       id="path933"
       inkscape:connector-curvature="0" />
  </g>
</svg>
