<?xml version="1.0" encoding="UTF-8" standalone="no"?>
<!-- Created with Inkscape (http://www.inkscape.org/) -->

<svg
   xmlns:dc="http://purl.org/dc/elements/1.1/"
   xmlns:cc="http://creativecommons.org/ns#"
   xmlns:rdf="http://www.w3.org/1999/02/22-rdf-syntax-ns#"
   xmlns:svg="http://www.w3.org/2000/svg"
   xmlns="http://www.w3.org/2000/svg"
   xmlns:sodipodi="http://sodipodi.sourceforge.net/DTD/sodipodi-0.dtd"
   xmlns:inkscape="http://www.inkscape.org/namespaces/inkscape"
   width="512"
   height="512"
   viewBox="0 0 512 512"
   version="1.1"
   id="svg8"
   inkscape:version="0.92.4 (5da689c313, 2019-01-14)"
   sodipodi:docname="圖畫.svg">
  <defs
     id="defs2" />
  <sodipodi:namedview
     id="base"
     pagecolor="#ffffff"
     bordercolor="#666666"
     borderopacity="1.0"
     inkscape:pageopacity="0.0"
     inkscape:pageshadow="2"
     inkscape:zoom="1.4142136"
     inkscape:cx="197.42334"
     inkscape:cy="234.16909"
     inkscape:document-units="px"
     inkscape:current-layer="layer1"
     showgrid="false"
     units="px"
     inkscape:window-width="1920"
     inkscape:window-height="1001"
     inkscape:window-x="-9"
     inkscape:window-y="-9"
     inkscape:window-maximized="1">
    <inkscape:grid
       type="xygrid"
       id="grid815" />
  </sodipodi:namedview>
  <metadata
     id="metadata5">
    <rdf:RDF>
      <cc:Work
         rdf:about="">
        <dc:format>image/svg+xml</dc:format>
        <dc:type
           rdf:resource="http://purl.org/dc/dcmitype/StillImage" />
        <dc:title></dc:title>
      </cc:Work>
    </rdf:RDF>
  </metadata>
  <g
     inkscape:label="圖層 1"
     inkscape:groupmode="layer"
     id="layer1"
     transform="translate(0,-161.53332)">
    <path
       style="fill:#000000;fill-opacity:1;stroke:#000000;stroke-width:1px;stroke-linecap:butt;stroke-linejoin:miter;stroke-opacity:1"
       d="M 160,193.53332 152.5,213.53332 C 152.5,213.53332 129.5,247.53332 117.5,253.53332 108.55573,258.00546 70,303.53332 60,303.53332 L 91.5,294.53332 150,243.53332 180,223.53332 C 180,223.53332 190,203.53332 170,193.53332 150,183.53332 160,193.53332 160,193.53332 Z"
       id="path946"
       inkscape:connector-curvature="0"
       sodipodi:nodetypes="ccsccccsc" />
    <path
       style="fill:#000000;fill-opacity:1;stroke:#000000;stroke-width:1px;stroke-linecap:butt;stroke-linejoin:miter;stroke-opacity:1"
       d="M 103,302.53332 112.5,320.53332 C 112.5,320.53332 111,395.53332 114,401.03332 117,406.53332 80,406.03332 80,406.03332 L 68,398.03332 62.5,410.53332 56,414.03332 C 56,414.03332 58,435.03332 71.5,441.53332 85,448.03332 85,449.03332 85,449.03332 L 90,431.03332 C 90,431.03332 111,419.03332 107.5,420.03332 104,421.03332 145.5,405.53332 145.5,405.53332 L 178,391.03332 C 178,391.03332 191,383.53332 169.5,384.53332 148,385.53332 127,394.03332 127,394.03332 L 132,330.53332 124,309.53332 Z"
       id="path948"
       inkscape:connector-curvature="0" />
    <path
       style="fill:#000000;fill-opacity:1;stroke:#000000;stroke-width:1px;stroke-linecap:butt;stroke-linejoin:miter;stroke-opacity:1"
       d="M 148,294.03332 145,305.03332 163.5,310.03332 183,294.03332 183.5,287.53332 173,283.03332 Z"
       id="path950"
       inkscape:connector-curvature="0" />
    <path
       style="fill:#000000;fill-opacity:1;stroke:#000000;stroke-width:1px;stroke-linecap:butt;stroke-linejoin:miter;stroke-opacity:1"
       d="M 143.5,348.53332 178.5,336.53332 188.5,340.03332 C 188.5,340.03332 191.5,348.03332 178,353.53332 164.5,359.03332 164.5,358.53332 164.5,358.53332 L 142.5,353.53332 Z"
       id="path952"
       inkscape:connector-curvature="0" />
    <path
       style="fill:#000000;fill-opacity:1;stroke:#000000;stroke-width:1px;stroke-linecap:butt;stroke-linejoin:miter;stroke-opacity:1"
       d="M 177.5,234.03332 C 177.5,234.03332 191,263.03332 206,264.53332 221,266.03332 204.5,307.53332 204.5,307.53332 L 202.5,382.03332 199,391.53332 C 199,391.53332 69.168758,528.86423 69.75,505.03332 L 70.5,474.28332 C 70.5,474.28332 9.75,566.28332 30.25,556.28332 62.636855,540.48485 99.5,501.03332 99.5,501.03332 L 151,455.03332 200,404.53332 195.5,530.53332 C 195.5,530.53332 168.5,524.53332 172.5,515.53332 176.5,506.53332 157.5,524.03332 164,533.53332 170.5,543.03332 191.5,582.03332 191.5,582.03332 L 198,588.03332 C 198,588.03332 219.5,568.53332 216,547.53332 212.5,526.53332 217,427.03332 217,427.03332 L 214.5,384.53332 229,371.03332 219,375.03332 225.5,296.53332 C 225.5,296.53332 223.5,272.53332 234,268.03332 244.5,263.53332 250,251.53332 250,251.53332 L 242,246.03332 234,224.53332 226.5,222.03332 218.5,233.03332 C 218.5,233.03332 180.5,228.53332 177.5,234.03332 Z"
       id="path954"
       inkscape:connector-curvature="0"
       sodipodi:nodetypes="cscccscsccccssccscccccscccccc" />
    <path
       style="fill:#000000;fill-opacity:1;stroke:#000000;stroke-width:1px;stroke-linecap:butt;stroke-linejoin:miter;stroke-opacity:1"
       d="M 304.5,238.03332 C 304.5,238.03332 315.5,266.53332 328,259.03332 340.5,251.53332 380,239.53332 380,239.53332 L 363,297.03332 306,312.03332 C 306,312.03332 305.5,339.53332 322.5,333.03332 339.5,326.53332 378.5,312.03332 378.5,312.03332 L 388.5,300.53332 382.5,299.53332 396,256.03332 418.5,245.03332 C 418.5,245.03332 423.5,215.53332 388.5,212.03332 353.5,208.53332 380.5,219.03332 345.5,228.53332 310.5,238.03332 313.5,239.03332 313.5,239.03332 Z"
       id="path956"
       inkscape:connector-curvature="0" />
    <path
       style="fill:#000000;fill-opacity:1;stroke:#000000;stroke-width:1px;stroke-linecap:butt;stroke-linejoin:miter;stroke-opacity:1"
       d="M 279,306.03332 C 279,306.03332 296.5,338.03332 295.5,347.53332 294.5,357.03332 297,388.03332 297,388.03332 L 295.5,393.53332 264,402.03332 252,395.53332 C 252,395.53332 252,423.03332 268.5,429.53332 285,436.03332 282.5,423.03332 282.5,423.03332 282.5,423.03332 306,409.03332 320,406.53332 334,404.03332 390,388.03332 390,388.03332 L 404.5,386.03332 C 404.5,386.03332 428.5,393.53332 405.5,446.53332 382.5,499.53332 381.5,511.53332 381.5,511.53332 381.5,511.53332 352,521.03332 344.5,510.03332 337,499.03332 364,564.53332 364,564.53332 364,564.53332 379.5,564.03332 392.5,531.53332 405.5,499.03332 441,397.53332 441,397.53332 441,397.53332 430.5,365.53332 409.5,363.03332 388.5,360.53332 360,375.03332 330.5,384.53332 301,394.03332 313,389.53332 313,389.53332 313,389.53332 314.5,352.53332 316,342.03332 317.5,331.53332 310.5,331.53332 310.5,331.53332 310.5,331.53332 282.5,301.53332 279,306.03332 Z"
       id="path958"
       inkscape:connector-curvature="0" />
  </g>
</svg>
