<?xml version="1.0" encoding="UTF-8" standalone="no"?>
<!-- Created with Inkscape (http://www.inkscape.org/) -->

<svg
   xmlns:dc="http://purl.org/dc/elements/1.1/"
   xmlns:cc="http://creativecommons.org/ns#"
   xmlns:rdf="http://www.w3.org/1999/02/22-rdf-syntax-ns#"
   xmlns:svg="http://www.w3.org/2000/svg"
   xmlns="http://www.w3.org/2000/svg"
   xmlns:sodipodi="http://sodipodi.sourceforge.net/DTD/sodipodi-0.dtd"
   xmlns:inkscape="http://www.inkscape.org/namespaces/inkscape"
   width="512"
   height="512"
   viewBox="0 0 512 512"
   version="1.1"
   id="svg8"
   inkscape:version="0.92.4 (5da689c313, 2019-01-14)"
   sodipodi:docname="圖畫1.svg">
  <defs
     id="defs2" />
  <sodipodi:namedview
     id="base"
     pagecolor="#ffffff"
     bordercolor="#666666"
     borderopacity="1.0"
     inkscape:pageopacity="0.0"
     inkscape:pageshadow="2"
     inkscape:zoom="1.4"
     inkscape:cx="203.28381"
     inkscape:cy="267.61928"
     inkscape:document-units="px"
     inkscape:current-layer="layer1"
     showgrid="false"
     units="px"
     inkscape:window-width="1920"
     inkscape:window-height="1001"
     inkscape:window-x="-9"
     inkscape:window-y="-9"
     inkscape:window-maximized="1">
    <inkscape:grid
       type="xygrid"
       id="grid4529" />
  </sodipodi:namedview>
  <metadata
     id="metadata5">
    <rdf:RDF>
      <cc:Work
         rdf:about="">
        <dc:format>image/svg+xml</dc:format>
        <dc:type
           rdf:resource="http://purl.org/dc/dcmitype/StillImage" />
        <dc:title></dc:title>
      </cc:Work>
    </rdf:RDF>
  </metadata>
  <g
     inkscape:label="圖層 1"
     inkscape:groupmode="layer"
     id="layer1"
     transform="translate(0,-161.53332)">
    <path
       style="fill:#000000;fill-opacity:1;stroke:#000000;stroke-width:1px;stroke-linecap:butt;stroke-linejoin:miter;stroke-opacity:1"
       d="M 180,233.53332 V 243.53332 L 200,253.53332 290,233.53332 360,223.53332 C 360,223.53332 370,223.53332 360,213.53332 350,203.53332 350,203.53332 350,203.53332 L 260,223.53332 210,233.53332 Z"
       id="path4599"
       inkscape:connector-curvature="0" />
    <path
       style="fill:#000000;fill-opacity:1;stroke:#000000;stroke-width:1px;stroke-linecap:butt;stroke-linejoin:miter;stroke-opacity:1"
       d="M 160.71429,258.53332 169.28571,276.39046 188.57143,292.10475 C 188.57143,292.10475 203.57143,292.10475 178.57143,363.53332 153.57143,434.96189 137.14286,457.81903 137.14286,457.81903 137.14286,457.81903 92.142857,538.53332 55,543.53332 17.857143,548.53332 77.142857,546.39046 77.142857,546.39046 L 123.57143,515.67618 C 123.57143,515.67618 177.85714,407.81903 185.71429,407.10475 193.57143,406.39046 203.57143,306.39046 208.57143,304.24761 213.57143,302.10475 181.42857,255.67618 160.71429,258.53332 Z"
       id="path4603"
       inkscape:connector-curvature="0" />
    <path
       style="fill:#000000;fill-opacity:1;stroke:#000000;stroke-width:1px;stroke-linecap:butt;stroke-linejoin:miter;stroke-opacity:1"
       d="M 225,274.96189 245.71429,284.24761 C 245.71429,284.24761 256.42857,289.96189 252.14286,329.24761 247.85714,368.53332 237.14286,408.53332 237.14286,408.53332 L 230.71429,432.81903 C 230.71429,432.81903 217.85714,444.96189 225,384.96189 232.14286,324.96189 235.71429,312.81903 235.71429,312.81903 235.71429,312.81903 207.14286,264.24761 225,274.96189 Z"
       id="path4605"
       inkscape:connector-curvature="0" />
    <path
       style="fill:#000000;fill-opacity:1;stroke:#000000;stroke-width:1px;stroke-linecap:butt;stroke-linejoin:miter;stroke-opacity:1"
       d="M 245.71429,284.24761 321.42857,264.96189 331.42857,254.96189 341.42857,259.96189 355,262.81903 C 355,262.81903 365.71429,268.53332 358.57143,277.10475 351.42857,285.67618 337.14286,294.24761 337.14286,294.24761 L 320,293.53332 312.14286,279.96189 272.14286,299.24761 253.57143,302.10475 Z"
       id="path4611"
       inkscape:connector-curvature="0" />
    <path
       style="fill:#000000;fill-opacity:1;stroke:#000000;stroke-width:1px;stroke-linecap:butt;stroke-linejoin:miter;stroke-opacity:1"
       d="M 252.14286,333.53332 308.57143,314.96189 320,293.53332 337.14286,294.24761 333.57143,311.39046 C 333.57143,311.39046 350.71429,305.67618 347.85714,312.81903 345,319.96189 347.85714,319.96189 326.42857,327.10475 305,334.24761 270,347.81903 270,347.81903 L 248.57143,344.24761 Z"
       id="path4613"
       inkscape:connector-curvature="0" />
    <path
       style="fill:#000000;fill-opacity:1;stroke:#000000;stroke-width:1px;stroke-linecap:butt;stroke-linejoin:miter;stroke-opacity:1"
       d="M 399.28571,258.53332 402.14286,275.67618 360,327.10475 329.28571,355.67618 297.14286,349.96189 C 297.14286,349.96189 275,356.39046 316.42857,369.96189 357.85714,383.53332 375.71429,389.96189 375.71429,389.96189 L 415,408.53332 446.42857,410.67618 C 446.42857,410.67618 448.57143,385.67618 430,379.24761 411.42857,372.81903 343.57143,357.10475 343.57143,357.10475 343.57143,357.10475 409.28571,309.96189 414.28571,299.24761 419.28571,288.53332 443.57143,254.24761 399.28571,258.53332 Z"
       id="path4615"
       inkscape:connector-curvature="0" />
    <path
       style="fill:#000000;fill-opacity:1;stroke:#000000;stroke-width:1px;stroke-linecap:butt;stroke-linejoin:miter;stroke-opacity:1"
       d="M 230.71429,432.81903 C 230.71429,432.81903 194.28571,440.67618 186.42857,432.10475 178.57143,423.53332 202.14286,476.39046 216.42857,466.39046 230.71429,456.39046 222.14286,458.53332 222.14286,458.53332 L 246.42857,447.10475 303.57143,394.96189 C 303.57143,394.96189 332.14287,370.67617 230.71429,432.81903 Z"
       id="path4619"
       inkscape:connector-curvature="0" />
    <path
       style="fill:#000000;fill-opacity:1;stroke:#000000;stroke-width:1px;stroke-linecap:butt;stroke-linejoin:miter;stroke-opacity:1"
       d="M 312.14286,392.10475 330.71429,413.53332 333.57143,457.81903 180.71429,493.53332 C 180.71429,493.53332 142.14286,503.53332 143.57143,497.10475 145,490.67618 148.57143,527.10475 169.28571,518.53332 190,509.96189 204.28571,499.96189 204.28571,499.96189 204.28571,499.96189 325.71429,460.67618 334.28571,474.96189 342.85714,489.24761 335.71429,587.10475 335.71429,587.10475 335.71429,587.10475 302.85714,592.81903 297.85714,587.10475 292.85714,581.39046 320.71429,639.96189 329.28571,636.39046 337.85714,632.81903 367.85714,621.39046 360,581.39046 352.14286,541.39046 347.85714,471.39046 352.85714,469.96189 357.85714,468.53332 458.57143,457.81903 482.85714,471.39046 507.14286,484.96189 470.71428,444.96189 456.42857,439.96189 439.52011,434.04393 353.57142,454.2476 353.57142,454.2476 353.57142,454.2476 359.32586,423.71366 353.57143,406.39046 342.55632,373.23046 310.71429,389.96189 312.14286,392.10475 Z"
       id="path4621"
       inkscape:connector-curvature="0"
       sodipodi:nodetypes="ccccsscscsssssscsc" />
    <path
       style="fill:#000000;fill-opacity:1;stroke:#000000;stroke-width:1px;stroke-linecap:butt;stroke-linejoin:miter;stroke-opacity:1"
       d="M 234.28571,494.96189 C 234.28571,494.96189 263.57143,554.24761 275,538.53332 286.42857,522.81903 285,523.53332 277.85714,517.81903 270.71429,512.10475 234.28571,494.96189 234.28571,494.96189 Z"
       id="path4623"
       inkscape:connector-curvature="0" />
  </g>
</svg>
