<?xml version="1.0" standalone="no"?>
<!DOCTYPE svg PUBLIC "-//W3C//DTD SVG 1.1//EN" "http://www.w3.org/Graphics/SVG/1.1/DTD/svg11.dtd" >
<svg xmlns="http://www.w3.org/2000/svg" xmlns:xlink="http://www.w3.org/1999/xlink" version="1.1" viewBox="0 0 256 256">
  <g transform="matrix(1 0 0 -1 0 204)">
   <path fill="currentColor"
d="M137 194q-4 3 1 2q16 -3 12 -8q-3 -9 -4 -23q10 1 16 3q5 1 7 5q1 5 10 5q10 -1 17 -2q2 -1 3 -3q0 -2 -2 -2q-21 -3 -52 -11q-4 -11 -11 -29q-2 -3 -2 -5q32 9 57 11q8 1 18 -14q2 -3 1 -3q0 -1 -2 0q-4 0 -7 -4q-12 -11 -26 -20q-2 -1 -3 -2q-16 -9 -29 -4q-7 3 2 2
q10 -2 26 7q17 8 28 28q0 6 -7 8q-24 -2 -59 -12q-4 -4 -8 -7h-1q0 -9 6 -8q2 0 2 -2q-2 -3 2 -9h1q2 1 6 4q11 12 11 22q-1 3 5 3q6 -4 3 -9q-4 -8 -15 -17q11 -1 14 4q0 2 14 2q2 -1 1 -2q-3 -1 -8 -3q-8 -3 -12 -4q-6 -3 -4 0q-15 -4 -35 -14q-3 -2 -4 -1l1 4q0 1 1 2
l2 2q-2 0 -6 6q-1 1 -1 2q-3 4 -8 9q-4 5 4 8q4 -1 1 -2q-4 -4 0 -5q5 -5 10 -9v-2q3 -4 6 -5q4 0 8 3q-8 2 -8 21q0 3 2 1q1 2 3 4q-1 -1 -4 -2q-4 0 -6 -1q-6 -1 0 2l12 4q6 9 10 29q0 2 1 5q-9 -2 -14 -3q-7 -2 -18 1q-5 1 -1 2q10 -1 22 2q1 0 12 3q3 32 -1 31zM78 176
q4 -5 12 -9q1 -2 -3 -4q-8 0 -10 -2q-4 -4 -11 -5q-7 -3 -2 2q14 12 11 16q-1 2 0 2q1 1 3 0zM82 129q2 -5 7 -7q2 -5 -2 -5q-3 3 -7 -7q-15 -21 -8 -103q6 -7 14 -19q0 -6 -7 -4q-4 5 -7 11q-1 1 -2 3q-2 3 -8 9q-4 3 -2 8q3 4 8 2q-2 40 1 81q-35 -46 -64 -64q-5 -4 -2 1
q33 33 68 78q6 8 7 15q-1 2 0 3q1 0 4 -2zM176 83q3 4 10 1q1 -1 4 -2h5q2 -1 3 -2q-1 -1 -3 -1q-43 -5 -83 -19q-17 -6 -17 1q0 2 2 1q1 -2 13 2q28 7 53 13q8 1 13 6zM207 64q17 -5 24 -7q2 -2 1 -4q-2 -3 -8 -1q-9 6 -18 9q-3 0 -3 2q1 1 4 1zM133 54q7 -4 15 -3
q5 -3 2 -6q-8 -6 -18 8q-2 2 1 1zM109 42q-16 -12 -11 -28q-3 -4 -6 -2v16q0 3 3 6q3 0 13 10q5 2 1 -2zM116 35q39 -50 99 -32q4 1 1 9q-5 10 -17 16q-5 4 1 2q13 -5 20 -12q1 -1 3 -2q4 -4 9 -4q3 -2 2 -4q0 -2 -3 -3q-78 -27 -116 28q-4 5 1 2z" />
  </g>

</svg>
